<?xml version="1.0" encoding="UTF-8"?>
<svg width="211px" height="375px" viewBox="0 0 211 375" version="1.1" xmlns="http://www.w3.org/2000/svg" xmlns:xlink="http://www.w3.org/1999/xlink">
    <!-- Generator: Sketch 54.1 (76490) - https://sketchapp.com -->
    <title>devgulp-cards</title>
    <desc>Created with Sketch.</desc>
    <g id="Page-1" stroke="none" stroke-width="1" fill="none" fill-rule="evenodd">
        <g id="devgulp-cards" transform="translate(1.000000, 1.000000)">
            <rect id="Rectangle" stroke="#E5E3D6" stroke-width="2" fill="#FAFCFF" fill-rule="nonzero" x="0" y="0" width="209" height="373" rx="4"></rect>
            <rect id="Rectangle" stroke="#EEEEEE" fill="#FFFFFF" fill-rule="nonzero" x="13" y="65" width="86" height="122" rx="2"></rect>
            <g id="coding" opacity="0.5" transform="translate(31.000000, 73.000000)" fill-rule="nonzero">
                <polygon id="Path" fill="#2C6A9B" points="20 41.4893617 30 41.4893617 30 47.8723404 20 47.8723404"></polygon>
                <polygon id="Path" fill="#1A5A84" points="20 41.4893617 30 41.4893617 30 43.6170213 20 43.6170213"></polygon>
                <path d="M33.7717555,50 L14.8952865,50 C14.4009082,50 14,49.5235186 14,48.9359472 C14,48.3483758 14.4009082,47.8723404 14.8952865,47.8723404 L33.7717555,47.8723404 C34.2661338,47.8723404 34.6666667,48.3483758 34.6666667,48.9359472 C34.6666667,49.5235186 34.2661338,50 33.7717555,50 L33.7717555,50 Z" id="Path" fill="#DCEEEF"></path>
                <path d="M50,1.82633943 L50,40.2718022 C50,40.9448545 49.540329,41.4893617 48.9727021,41.4893617 L1.02729795,41.4893617 C0.459670996,41.4893617 0,40.9448545 0,40.2718022 L0,1.82633943 C0,0.817892294 0.690078711,0 1.5403748,0 L48.4596252,0 C49.3106842,0 50,0.817892294 50,1.82633943 Z" id="Path" fill="#DCEEEF"></path>
                <path d="M50,1.82590672 L50,40.2713362 C50,40.9453013 49.5127868,41.4893617 48.9119579,41.4893617 L46.5442231,41.4893617 C47.1450521,41.4893617 47.6322652,40.9453013 47.6322652,40.2713362 L47.6322652,1.82590672 C47.6322652,0.817901188 46.9016476,0 46,0 L48.3677348,0 C49.2693824,0 50,0.817901188 50,1.82590672 Z" id="Path" fill="#BCDDE2"></path>
                <polygon id="Path" fill="#3BC3FF" points="28 8.5106383 50 8.5106383 50 24.4680851 28 24.4680851"></polygon>
                <polygon id="Path" fill="#009AF2" points="48 8.5106383 50 8.5106383 50 24.4680851 48 24.4680851"></polygon>
                <path d="M43.8085702,17.2097307 C43.9966246,17.5252105 44.0497045,17.9314895 43.9518858,18.3030238 L42.574842,23.5234985 L42.3249875,24.4680851 L30.8051368,24.4680851 L31.6513817,21.7297566 C31.6771634,21.6472962 31.7097695,21.5680788 31.7492003,21.4939572 L32.2030334,20.6443388 C32.4995224,20.0888903 32.3789553,19.3462848 31.9319468,18.9705811 L29.278711,16.7404485 C29.145253,16.6283396 28.9909423,16.5574609 28.8298069,16.5338347 L27.3333333,16.3179556 L27.3333333,8.5106383 L43.1507588,8.5106383 L42.0311524,11.097481 C41.8692588,11.4708683 41.5610163,11.7159328 41.215618,11.7451181 L36.3811782,12.1509337 C36.177579,12.1680744 35.9830791,12.2611896 35.8238395,12.4173081 L34.0619666,14.1461937 C33.7089853,14.4922488 33.5903139,15.0847581 33.7726812,15.591101 L34.223102,16.8409759 C34.407365,17.352878 34.853236,17.6465847 35.3044149,17.5534695 L42.4512418,16.0807666 C42.8250758,16.0034021 43.2027012,16.1919489 43.4260159,16.5667261 L43.8085702,17.2097307 Z" id="Path" fill="#8DFFA2"></path>
                <path d="M28.6666667,0 L28.6666667,41.4893617 L1.06814804,41.4893617 C0.47794963,41.4893617 0,40.9448545 0,40.2718022 L0,1.82633943 C0,0.817892294 0.717519416,0 1.60162719,0 L28.6666667,0 Z" id="Path" fill="#4C94C3"></path>
                <path d="M50,2.19119614 L50,5.31914894 L0,5.31914894 L0,2.19119614 C0,0.981286616 0.690078711,0 1.5403748,0 L48.4596252,0 C49.3106842,0 50,0.981286616 50,2.19119614 Z" id="Path" fill="#8BC1C6"></path>
                <path d="M50,36.1702128 L50,41.2222914 C50,41.958713 49.540329,42.5531915 48.9734649,42.5531915 L1.02653506,42.5531915 C0.459670996,42.5531915 0,41.958713 0,41.2222914 L0,36.1702128 L50,36.1702128 Z" id="Path" fill="#3B7CA8"></path>
                <path d="M50,36.1702128 L50,41.2222914 C50,41.958713 49.5300496,42.5531915 48.9505089,42.5531915 L46.6666667,42.5531915 C47.2462073,42.5531915 47.7161577,41.958713 47.7161577,41.2222914 L47.7161577,36.1702128 L50,36.1702128 Z" id="Path" fill="#2C6A9B"></path>
                <path d="M5.02944069,10.6382979 L4.97006866,10.6382979 C4.43424936,10.6382979 4,10.1617796 4,9.57446815 C4,8.98715666 4.43424936,8.5106383 4.97006866,8.5106383 L5.02944069,8.5106383 C5.56575077,8.5106383 6,8.98715666 6,9.57446815 C6,10.1617796 5.56575077,10.6382979 5.02944069,10.6382979 Z" id="Path" fill="#FF8980"></path>
                <path d="M9.96895939,10.6382979 L7.36402114,10.6382979 C6.97883596,10.6382979 6.66666667,10.1617796 6.66666667,9.57446815 C6.66666667,8.98715666 6.97883596,8.5106383 7.36402114,8.5106383 L9.96895939,8.5106383 C10.3541446,8.5106383 10.6666667,8.98715666 10.6666667,9.57446815 C10.6666667,10.1617796 10.3541446,10.6382979 9.96895939,10.6382979 Z" id="Path" fill="#FF8980"></path>
                <g id="Group" transform="translate(4.000000, 11.702128)" fill="#8DFFA2">
                    <path d="M0.856525182,1.96689425 L0.808962214,1.96689425 C0.379717031,1.96689425 0.0318395975,1.52776678 0.0318395975,0.98543182 C0.0318395975,0.443593268 0.379717031,0.00396951413 0.808962214,0.00396951413 L0.856525182,0.00396951413 C1.28616352,0.00396951413 1.63404086,0.443593268 1.63404086,0.98543182 C1.63404086,1.52776678 1.28616352,1.96689425 0.856525182,1.96689425 Z" id="Path"></path>
                    <path d="M9.78262581,1.96689425 L3.28616352,1.96689425 C2.85691824,1.96689425 2.50904091,1.52776678 2.50904091,0.98543182 C2.50904091,0.443593268 2.85691824,0.00396951413 3.28616352,0.00396951413 L9.78262581,0.00396951413 C10.2122642,0.00396951413 10.5601415,0.443593268 10.5601415,0.98543182 C10.5601415,1.52776678 10.2122642,1.96689425 9.78262581,1.96689425 Z" id="Path"></path>
                    <path d="M0.856525182,5.20403303 L0.808962214,5.20403303 C0.379717031,5.20403303 0.0318395975,4.76440927 0.0318395975,4.22257072 C0.0318395975,3.68023576 0.379717031,3.24110829 0.808962214,3.24110829 L0.856525182,3.24110829 C1.28616352,3.24110829 1.63404086,3.68023576 1.63404086,4.22257072 C1.63404086,4.76440927 1.28616352,5.20403303 0.856525182,5.20403303 Z" id="Path"></path>
                    <path d="M7.98584906,5.20403303 L3.28616352,5.20403303 C2.85691824,5.20403303 2.50904091,4.76440927 2.50904091,4.22257072 C2.50904091,3.68023576 2.85691824,3.24110829 3.28616352,3.24110829 L7.98584906,3.24110829 C8.4154874,3.24110829 8.76336483,3.68023576 8.76336483,4.22257072 C8.76336483,4.76440927 8.4154874,5.20403303 7.98584906,5.20403303 Z" id="Path"></path>
                    <path d="M0.856525182,8.44067564 L0.808962214,8.44067564 C0.379717031,8.44067564 0.0318395975,8.00105189 0.0318395975,7.45921321 C0.0318395975,6.91737453 0.379717031,6.47775091 0.808962214,6.47775091 L0.856525182,6.47775091 C1.28616352,6.47775091 1.63404086,6.91737453 1.63404086,7.45921321 C1.63404086,8.00105189 1.28616352,8.44067564 0.856525182,8.44067564 Z" id="Path"></path>
                    <path d="M15.173349,8.44067564 L7.64033016,8.44067564 C7.21069182,8.44067564 6.86281449,8.00105189 6.86281449,7.45921321 C6.86281449,6.91737453 7.21108488,6.47775091 7.64033016,6.47775091 L15.173349,6.47775091 C15.6029875,6.47775091 15.9508648,6.91737453 15.9508648,7.45921321 C15.9508648,8.00105189 15.6029875,8.44067564 15.173349,8.44067564 Z" id="Path"></path>
                    <path d="M5.49803462,8.44067564 L3.28616352,8.44067564 C2.85691824,8.44067564 2.50904091,8.00105189 2.50904091,7.45921321 C2.50904091,6.91737453 2.85691824,6.47775091 3.28616352,6.47775091 L5.49803462,6.47775091 C5.9272799,6.47775091 6.27515723,6.91737453 6.27515723,7.45921321 C6.27515723,8.00105189 5.9272799,8.44067564 5.49803462,8.44067564 Z" id="Path"></path>
                </g>
                <path d="M5.02944069,23.4042553 L4.97006866,23.4042553 C4.43424936,23.4042553 4,22.9282748 4,22.3404255 C4,21.7531141 4.43424936,21.2765957 4.97006866,21.2765957 L5.02944069,21.2765957 C5.56575077,21.2765957 6,21.7531141 6,22.3404255 C6,22.9282748 5.56575077,23.4042553 5.02944069,23.4042553 Z" id="Path" fill="#8DF4FF"></path>
                <path d="M13.8297042,23.4042553 L6.83653938,23.4042553 C6.37447512,23.4042553 6,22.9282748 6,22.3404255 C6,21.7531141 6.37447512,21.2765957 6.83653938,21.2765957 L13.8297042,21.2765957 C14.2921915,21.2765957 14.6666667,21.7531141 14.6666667,22.3404255 C14.6666667,22.9282748 14.2921915,23.4042553 13.8297042,23.4042553 Z" id="Path" fill="#8DF4FF"></path>
                <path d="M5.02944069,26.5957447 L4.97006866,26.5957447 C4.43424936,26.5957447 4,26.1196439 4,25.5321839 C4,24.9441859 4.43424936,24.4680851 4.97006866,24.4680851 L5.02944069,24.4680851 C5.56575077,24.4680851 6,24.9441859 6,25.5321839 C6,26.1196439 5.56575077,26.5957447 5.02944069,26.5957447 Z" id="Path" fill="#8DF4FF"></path>
                <path d="M13.8297042,26.5957447 L6.83653938,26.5957447 C6.37447512,26.5957447 6,26.1196439 6,25.5321839 C6,24.9441859 6.37447512,24.4680851 6.83653938,24.4680851 L13.8297042,24.4680851 C14.2921915,24.4680851 14.6666667,24.9441859 14.6666667,25.5321839 C14.6666667,26.1196439 14.2921915,26.5957447 13.8297042,26.5957447 Z" id="Path" fill="#8DF4FF"></path>
                <path d="M5.02944069,28.7234043 L4.97006866,28.7234043 C4.43424936,28.7234043 4,28.246886 4,27.6595745 C4,27.072263 4.43424936,26.5957447 4.97006866,26.5957447 L5.02944069,26.5957447 C5.56575077,26.5957447 6,27.072263 6,27.6595745 C6,28.246886 5.56575077,28.7234043 5.02944069,28.7234043 Z" id="Path" fill="#FF8980"></path>
                <path d="M19.2353339,28.7234043 L16.7646661,28.7234043 C16.3421281,28.7234043 16,28.246886 16,27.6595745 C16,27.072263 16.3425147,26.5957447 16.7646661,26.5957447 L19.2353339,26.5957447 C19.6578718,26.5957447 20,27.072263 20,27.6595745 C20,28.246886 19.6578718,28.7234043 19.2353339,28.7234043 Z" id="Path" fill="#FF8980"></path>
                <path d="M14.546774,28.7234043 L6.78616162,28.7234043 C6.35192362,28.7234043 6,28.246886 6,27.6595745 C6,27.072263 6.35192362,26.5957447 6.78616162,26.5957447 L14.546774,26.5957447 C14.9814096,26.5957447 15.3333333,27.072263 15.3333333,27.6595745 C15.3333333,28.246886 14.9814096,28.7234043 14.546774,28.7234043 Z" id="Path" fill="#FF8980"></path>
                <path d="M5.02944069,31.9148936 L4.97006866,31.9148936 C4.43424936,31.9148936 4,31.4387928 4,30.8507949 C4,30.2633348 4.43424936,29.787234 4.97006866,29.787234 L5.02944069,29.787234 C5.56575077,29.787234 6,30.2633348 6,30.8507949 C6,31.4387928 5.56575077,31.9148936 5.02944069,31.9148936 Z" id="Path" fill="#FF8980"></path>
                <path d="M13.8297042,31.9148936 L6.83653938,31.9148936 C6.37447512,31.9148936 6,31.4387928 6,30.8507949 C6,30.2633348 6.37447512,29.787234 6.83653938,29.787234 L13.8297042,29.787234 C14.2921915,29.787234 14.6666667,30.2633348 14.6666667,30.8507949 C14.6666667,31.4387928 14.2921915,31.9148936 13.8297042,31.9148936 Z" id="Path" fill="#FF8980"></path>
                <path d="M15.6961072,31.9148936 L15.6367353,31.9148936 C15.1009159,31.9148936 14.6666667,31.4387928 14.6666667,30.8507949 C14.6666667,30.2633348 15.1009159,29.787234 15.6367353,29.787234 L15.6961072,29.787234 C16.2324173,29.787234 16.6666667,30.2633348 16.6666667,30.8507949 C16.6666667,31.4387928 16.2324173,31.9148936 15.6961072,31.9148936 Z" id="Path" fill="#FF8980"></path>
                <path d="M11.6963454,10.6382979 L11.6369879,10.6382979 C11.1013,10.6382979 10.6666667,10.1617796 10.6666667,9.57446815 C10.6666667,8.98715666 11.1013,8.5106383 11.6369879,8.5106383 L11.6963454,8.5106383 C12.2325239,8.5106383 12.6666667,8.98715666 12.6666667,9.57446815 C12.6666667,10.1617796 12.2325239,10.6382979 11.6963454,10.6382979 Z" id="Path" fill="#FF8980"></path>
                <path d="M14.3627739,17.0212766 L14.3038926,17.0212766 C13.7675826,17.0212766 13.3333333,16.5447582 13.3333333,15.9574469 C13.3333333,15.3695975 13.7675826,14.893617 14.3038926,14.893617 L14.3627739,14.893617 C14.899084,14.893617 15.3333333,15.3695975 15.3333333,15.9574469 C15.3333333,16.5447582 14.899084,17.0212766 14.3627739,17.0212766 Z" id="Path" fill="#8DFFA2"></path>
                <path d="M18.363012,31.9148936 L18.3036547,31.9148936 C17.7674762,31.9148936 17.3333333,31.4387928 17.3333333,30.8507949 C17.3333333,30.2633348 17.7679667,29.787234 18.3036547,29.787234 L18.363012,29.787234 C18.8991905,29.787234 19.3333333,30.2633348 19.3333333,30.8507949 C19.3333333,31.4387928 18.8991905,31.9148936 18.363012,31.9148936 Z" id="Path" fill="#FF8980"></path>
                <path d="M21.6963454,28.7234043 L21.6369881,28.7234043 C21.1008094,28.7234043 20.6666667,28.246886 20.6666667,27.6595745 C20.6666667,27.072263 21.1013,26.5957447 21.6369881,26.5957447 L21.6963454,26.5957447 C22.2325239,26.5957447 22.6666667,27.072263 22.6666667,27.6595745 C22.6666667,28.246886 22.2325239,28.7234043 21.6963454,28.7234043 Z" id="Path" fill="#FF8980"></path>
                <path d="M15.6963453,26.5957447 L15.6369879,26.5957447 C15.1008094,26.5957447 14.6666667,26.1196439 14.6666667,25.5321839 C14.6666667,24.9441859 15.1012999,24.4680851 15.6369879,24.4680851 L15.6963453,24.4680851 C16.2320333,24.4680851 16.6666667,24.9441859 16.6666667,25.5321839 C16.6666667,26.1196439 16.2320333,26.5957447 15.6963453,26.5957447 Z" id="Path" fill="#8DF4FF"></path>
                <path d="M15.6963453,23.4042553 L15.6369879,23.4042553 C15.1008094,23.4042553 14.6666667,22.9282748 14.6666667,22.3404255 C14.6666667,21.7531141 15.1012999,21.2765957 15.6369879,21.2765957 L15.6963453,21.2765957 C16.2320333,21.2765957 16.6666667,21.7531141 16.6666667,22.3404255 C16.6666667,22.9282748 16.2320333,23.4042553 15.6963453,23.4042553 Z" id="Path" fill="#8DF4FF"></path>
                <path d="M18.363012,26.5957447 L18.3036547,26.5957447 C17.7674762,26.5957447 17.3333333,26.1196439 17.3333333,25.5321839 C17.3333333,24.9441859 17.7679667,24.4680851 18.3036547,24.4680851 L18.363012,24.4680851 C18.8991905,24.4680851 19.3333333,24.9441859 19.3333333,25.5321839 C19.3333333,26.1196439 18.8991905,26.5957447 18.363012,26.5957447 Z" id="Path" fill="#8DF4FF"></path>
                <path d="M20.3630121,26.5957447 L20.3036547,26.5957447 C19.7679666,26.5957447 19.3333333,26.1196439 19.3333333,25.5321839 C19.3333333,24.9441859 19.7679666,24.4680851 20.3036547,24.4680851 L20.3630121,24.4680851 C20.8991906,24.4680851 21.3333333,24.9441859 21.3333333,25.5321839 C21.3333333,26.1196439 20.8991906,26.5957447 20.3630121,26.5957447 Z" id="Path" fill="#8DF4FF"></path>
                <path d="M21.696598,26.5957447 L21.637226,26.5957447 C21.1009159,26.5957447 20.6666667,26.1196439 20.6666667,25.5321839 C20.6666667,24.9441859 21.1009159,24.4680851 21.637226,24.4680851 L21.696598,24.4680851 C22.2324174,24.4680851 22.6666667,24.9441859 22.6666667,25.5321839 C22.6666667,26.1196439 22.2324174,26.5957447 21.696598,26.5957447 Z" id="Path" fill="#8DF4FF"></path>
                <path d="M47.897574,28.7234043 L33.436148,28.7234043 C33.0109493,28.7234043 32.6666667,28.246886 32.6666667,27.6595745 C32.6666667,27.072263 33.0113383,26.5957447 33.436148,26.5957447 L47.897574,26.5957447 C48.3223837,26.5957447 48.6666663,27.072263 48.6666663,27.6595745 C48.6670553,28.246886 48.3223837,28.7234043 47.897574,28.7234043 Z" id="Path" fill="#4C94C3"></path>
                <path d="M31.3245686,28.7234043 L30.6750895,28.7234043 C30.3022024,28.7234043 30,28.246886 30,27.6595745 C30,27.072263 30.3022024,26.5957447 30.6750895,26.5957447 L31.3245686,26.5957447 C31.6977972,26.5957447 31.9999997,27.072263 31.9999997,27.6595745 C32.0003412,28.246886 31.6977972,28.7234043 31.3245686,28.7234043 Z" id="Path" fill="#4C94C3"></path>
                <path d="M44.5638519,32.9787234 L30.1028147,32.9787234 C29.6776159,32.9787234 29.3333333,32.502743 29.3333333,31.9148937 C29.3333333,31.3275822 29.6776159,30.8510638 30.1028147,30.8510638 L44.5638519,30.8510638 C44.9890506,30.8510638 45.3333333,31.3275822 45.3333333,31.9148937 C45.3333333,32.5022052 44.9886616,32.9787234 44.5638519,32.9787234 L44.5638519,32.9787234 Z" id="Path" fill="#4C94C3"></path>
                <path d="M47.3249102,32.9787234 L46.6750895,32.9787234 C46.3022024,32.9787234 46,32.502743 46,31.9148937 C46,31.3275822 46.3022024,30.8510638 46.6750895,30.8510638 L47.3249102,30.8510638 C47.6977973,30.8510638 47.9999997,31.3275822 47.9999997,31.9148937 C48.0003412,32.5022052 47.6977973,32.9787234 47.3249102,32.9787234 Z" id="Path" fill="#4C94C3"></path>
                <path d="M47.8804319,31.9148936 L30.1195677,31.9148936 C29.6852895,31.9148936 29.3333333,31.4383753 29.3333333,30.8510638 C29.3333333,30.2637523 29.6852895,29.787234 30.1195677,29.787234 L47.8804319,29.787234 C48.3147101,29.787234 48.6666663,30.2637523 48.6666663,30.8510638 C48.667064,31.4383753 48.3147101,31.9148936 47.8804319,31.9148936 Z" id="Path" fill="#4C94C3"></path>
            </g>
            <rect id="Rectangle" stroke="#EEEEEE" fill="#FFFFFF" fill-rule="nonzero" x="109" y="65" width="86" height="122" rx="2"></rect>
            <rect id="Rectangle" fill="#E3E7ED" fill-rule="nonzero" x="130" y="167" width="44" height="3" rx="1"></rect>
            <rect id="Rectangle" stroke="#EEEEEE" fill="#FFFFFF" fill-rule="nonzero" x="13" y="197" width="86" height="122" rx="2"></rect>
            <rect id="Rectangle" stroke="#EEEEEE" fill="#FFFFFF" fill-rule="nonzero" x="109" y="197" width="86" height="122" rx="2"></rect>
            <rect id="Rectangle" fill="#E3E7ED" fill-rule="nonzero" x="34" y="297" width="44" height="3" rx="1"></rect>
            <rect id="Rectangle" fill="#FFEAA7" fill-rule="nonzero" x="46" y="303" width="20" height="3" rx="1"></rect>
            <rect id="Rectangle" fill="#E3E7ED" fill-rule="nonzero" x="130" y="297" width="44" height="3" rx="1"></rect>
            <rect id="Rectangle" fill="#FFEAA7" fill-rule="nonzero" x="142" y="303" width="20" height="3" rx="1"></rect>
            <rect id="Rectangle" fill="#E3E7ED" fill-rule="nonzero" x="34" y="167" width="44" height="3" rx="1"></rect>
            <rect id="Rectangle" fill="#FFEAA7" fill-rule="nonzero" x="46" y="173" width="20" height="3" rx="1"></rect>
            <rect id="Rectangle" fill="#E1C9FF" fill-rule="nonzero" x="19" y="130" width="25" height="3" rx="1"></rect>
            <rect id="Rectangle" fill="#E1C9FF" fill-rule="nonzero" x="19" y="138" width="50" height="3" rx="1"></rect>
            <rect id="Rectangle" fill="#E1C9FF" fill-rule="nonzero" x="19" y="146" width="37" height="3" rx="1"></rect>
            <rect id="Rectangle" fill="#E1C9FF" fill-rule="nonzero" x="19" y="154" width="62" height="3" rx="1"></rect>
            <rect id="Rectangle" fill="#FFC9C9" fill-rule="nonzero" x="117" y="130" width="25" height="3" rx="1"></rect>
            <rect id="Rectangle" fill="#FFC9C9" fill-rule="nonzero" x="117" y="138" width="50" height="3" rx="1"></rect>
            <rect id="Rectangle" fill="#FFC9C9" fill-rule="nonzero" x="117" y="146" width="35" height="3" rx="1"></rect>
            <rect id="Rectangle" fill="#FFC9C9" fill-rule="nonzero" x="117" y="154" width="60" height="3" rx="1"></rect>
            <rect id="Rectangle" fill="#C9E6FF" fill-rule="nonzero" x="19" y="260" width="25" height="3" rx="1"></rect>
            <rect id="Rectangle" fill="#C9E6FF" fill-rule="nonzero" x="19" y="268" width="50" height="3" rx="1"></rect>
            <rect id="Rectangle" fill="#C9E6FF" fill-rule="nonzero" x="19" y="276" width="37" height="3" rx="1"></rect>
            <rect id="Rectangle" fill="#C9E6FF" fill-rule="nonzero" x="19" y="284" width="62" height="3" rx="1"></rect>
            <rect id="Rectangle" fill="#C1DDB7" fill-rule="nonzero" x="117" y="260" width="25" height="3" rx="1"></rect>
            <rect id="Rectangle" fill="#C1DDB7" fill-rule="nonzero" x="117" y="268" width="50" height="3" rx="1"></rect>
            <rect id="Rectangle" fill="#C1DDB7" fill-rule="nonzero" x="117" y="276" width="35" height="3" rx="1"></rect>
            <rect id="Rectangle" fill="#C1DDB7" fill-rule="nonzero" x="117" y="284" width="60" height="3" rx="1"></rect>
            <rect id="Rectangle" fill="#FFEAA7" fill-rule="nonzero" x="142" y="173" width="20" height="3" rx="1"></rect>
            <rect id="Rectangle" stroke="#E5E3D6" fill="#E9F4FE" fill-rule="nonzero" x="0" y="0" width="209" height="44"></rect>
            <text id="DevGulp" fill="#A5A5A5" font-family="STXihei, STHeiti" font-size="16" font-weight="300">
                <tspan x="70" y="28">DevGulp</tspan>
            </text>
            <g id="browser" opacity="0.5" transform="translate(127.000000, 202.000000)" fill-rule="nonzero">
                <path d="M50,5.50484955 L50,44.4951505 C50,47.5357672 47.6673126,50 44.7887421,50 L5.21125791,50 C2.3326874,50 0,47.5357672 0,44.4951505 L0,5.50484955 C0,4.71176769 0.158309961,3.95856158 0.44479375,3.27745373 C1.25312803,1.34690984 3.08265684,0 5.21125791,0 L44.7887421,0 C47.6673126,0 50,2.46423283 50,5.50484955 Z" id="Path" fill="#E1EBF0"></path>
                <path d="M17.3333333,10.6485024 L17.3333333,50 L5.22151902,50 C2.33728053,50 0,47.5277265 0,44.4771884 L0,5.35966371 C0,4.56399406 0.158621677,3.80833027 0.445669561,3.125 L17.3333333,10.6485024 Z" id="Path" fill="#B4D2D7"></path>
                <path d="M50,5.32006837 L50,10.4166667 L0,10.4166667 L0,5.32006837 C0,2.38225385 2.33232373,0 5.21129774,0 L44.7887023,0 C47.6672948,0 50,2.38225385 50,5.32006837 Z" id="Path" fill="#4C5072"></path>
                <path d="M7.33333333,5.20833333 C7.33333333,6.35857907 6.4379845,7.29166667 5.33333333,7.29166667 C4.22868217,7.29166667 3.33333333,6.35857907 3.33333333,5.20833333 C3.33333333,4.05765504 4.22868217,3.125 5.33333333,3.125 C6.4379845,3.125 7.33333333,4.05765504 7.33333333,5.20833333 Z" id="Path" fill="#E1EBF0"></path>
                <path d="M14,5.20833333 C14,6.35857907 13.1042358,7.29166667 12,7.29166667 C10.8953488,7.29166667 10,6.35857907 10,5.20833333 C10,4.05765504 10.8953488,3.125 12,3.125 C13.1042358,3.125 14,4.05765504 14,5.20833333 Z" id="Path" fill="#95DAE8"></path>
                <path d="M21.3333333,5.20833333 C21.3333333,6.35857907 20.4378915,7.29166667 19.333541,7.29166667 C18.2287751,7.29166667 17.3333333,6.35857907 17.3333333,5.20833333 C17.3333333,4.05765504 18.2287751,3.125 19.333541,3.125 C20.4378915,3.125 21.3333333,4.05765504 21.3333333,5.20833333 Z" id="Path" fill="#FF435E"></path>
                <path d="M15.1469414,17.7083333 L8.18639193,17.7083333 C7.71521104,17.7083333 7.33333333,17.2420239 7.33333333,16.6666667 C7.33333333,16.0913093 7.71521104,15.625 8.18639193,15.625 L15.1469414,15.625 C15.6181223,15.625 16,16.0913093 16,16.6666667 C16,17.2420239 15.6181223,17.7083333 15.1469414,17.7083333 Z" id="Path" fill="#FFFFFF"></path>
                <path d="M15.1469414,23.9583333 L8.18639193,23.9583333 C7.71521104,23.9583333 7.33333333,23.4916211 7.33333333,22.9164072 C7.33333333,22.3411933 7.71521104,21.875 8.18639193,21.875 L15.1469414,21.875 C15.6181223,21.875 16,22.3411933 16,22.9164072 C16,23.4916211 15.6181223,23.9583333 15.1469414,23.9583333 Z" id="Path" fill="#FFFFFF"></path>
                <path d="M15.1469414,30.2083333 L8.18639193,30.2083333 C7.71521104,30.2083333 7.33333333,29.7420239 7.33333333,29.1666667 C7.33333333,28.5913094 7.71521104,28.125 8.18639193,28.125 L15.1469414,28.125 C15.6181223,28.125 16,28.5913094 16,29.1666667 C16,29.7420239 15.6181223,30.2083333 15.1469414,30.2083333 Z" id="Path" fill="#FFFFFF"></path>
                <path d="M15.1469414,37.5 L8.18639193,37.5 C7.71521104,37.5 7.33333333,37.0332876 7.33333333,36.4580737 C7.33333333,35.8828598 7.71521104,35.4166667 8.18639193,35.4166667 L15.1469414,35.4166667 C15.6181223,35.4166667 16,35.8828598 16,36.4580737 C16,37.0332876 15.6181223,37.5 15.1469414,37.5 Z" id="Path" fill="#FFFFFF"></path>
                <path d="M3.33054693,17.7083333 C2.73578683,17.7083333 2.437238,16.5273245 2.87604469,15.8959251 C3.32587171,15.2483759 4.06723469,15.8469552 3.99510207,16.7914496 C3.95569625,17.3092806 3.66382637,17.7083333 3.33054693,17.7083333 Z" id="Path" fill="#FF435E"></path>
                <path d="M3.33060263,23.9583333 C2.73739777,23.9583333 2.43628866,22.7788773 2.87626847,22.1491059 C3.08056863,21.8573622 3.38334683,21.7923569 3.63137793,21.9837325 C3.88775461,22.1818686 4.03396939,22.6291051 3.99324284,23.0685408 C3.94617371,23.5740221 3.65741615,23.9583333 3.33060263,23.9583333 Z" id="Path" fill="#FF435E"></path>
                <path d="M3.33136905,30.2083333 C2.76022102,30.2083333 2.45114087,29.1110276 2.84024176,28.4571146 C3.03629258,28.1270392 3.35637556,28.0313954 3.61710977,28.2226831 C3.88651294,28.4202085 4.04088632,28.8864724 3.99053991,29.3433799 C3.93585916,29.8366736 3.65245231,30.2083333 3.33136905,30.2083333 Z" id="Path" fill="#FF435E"></path>
                <path d="M3.33031986,37.5 C2.73147427,37.5 2.43605704,36.307197 2.88101877,35.6840288 C3.09665657,35.3820598 3.4184443,35.330086 3.66913165,35.557732 C3.91247526,35.7786214 4.04232535,36.2297556 3.98758129,36.6601003 C3.92616123,37.1408597 3.64509771,37.5 3.33031986,37.5 L3.33031986,37.5 Z" id="Path" fill="#FF435E"></path>
                <g id="Group" transform="translate(20.000000, 16.666667)" fill="#353A59">
                    <path d="M25.2127963,1.59642603 L0.802683599,1.59642603 C0.384351717,1.59642603 0.0453066914,1.24051968 0.0453066914,0.801383726 C0.0453066914,0.362247565 0.384351717,0.00634131494 0.802683599,0.00634131494 L25.2127963,0.00634131494 C25.631128,0.00634131494 25.9705506,0.362247565 25.9705506,0.801383726 C25.9705506,1.24051968 25.631128,1.59642603 25.2127963,1.59642603 Z" id="Path"></path>
                    <path d="M25.2127963,5.09920982 L0.802683599,5.09920982 C0.384351717,5.09920982 0.0453066914,4.74290726 0.0453066914,4.30377121 C0.0453066914,3.86463515 0.384351717,3.50872879 0.802683599,3.50872879 L25.2127963,3.50872879 C25.631128,3.50872879 25.9705506,3.86463515 25.9705506,4.30377121 C25.9705506,4.74290726 25.631128,5.09920982 25.2127963,5.09920982 Z" id="Path"></path>
                    <path d="M25.2127963,8.6015974 L0.802683599,8.6015974 C0.384351717,8.6015974 0.0453066914,8.24569105 0.0453066914,7.80655499 C0.0453066914,7.36741893 0.384351717,7.01151268 0.802683599,7.01151268 L25.2127963,7.01151268 C25.631128,7.01151268 25.9705506,7.36741893 25.9705506,7.80655499 C25.9705506,8.24569105 25.631128,8.6015974 25.2127963,8.6015974 Z" id="Path"></path>
                    <path d="M25.2127963,12.1043812 L0.802683599,12.1043812 C0.384351717,12.1043812 0.0453066914,11.7480785 0.0453066914,11.3089426 C0.0453066914,10.8698064 0.384351717,10.5139002 0.802683599,10.5139002 L25.2127963,10.5139002 C25.631128,10.5139002 25.9705506,10.8698064 25.9705506,11.3089426 C25.9705506,11.7480785 25.631128,12.1043812 25.2127963,12.1043812 Z" id="Path"></path>
                    <path d="M13.1393181,15.6067687 L0.802683599,15.6067687 C0.384351717,15.6067687 0.0453066914,15.2508624 0.0453066914,14.8117264 C0.0453066914,14.3725903 0.384351717,14.0166841 0.802683599,14.0166841 L13.1393181,14.0166841 C13.5576498,14.0166841 13.8970725,14.3725903 13.8970725,14.8117264 C13.8970725,15.2508624 13.5576498,15.6067687 13.1393181,15.6067687 Z" id="Path"></path>
                </g>
            </g>
            <g id="coding-(1)" opacity="0.5" transform="translate(31.000000, 202.000000)" fill-rule="nonzero">
                <polygon id="Path" fill="#353A59" points="34 45.3978168 25 47 16 45.3978168 18.7581741 39.4470956 25.457998 36 31.2418259 39.4470956"></polygon>
                <path d="M45.9861756,39 L4.01382441,39 C1.79710391,39 0,37.02159 0,34.581229 L0,4.41835095 C0,1.97799008 1.79710391,0 4.01382441,0 L45.9861756,0 C48.2028961,0 50,1.97841001 50,4.41835095 L50,34.581229 C50,37.02159 48.2028961,39 45.9861756,39 Z" id="Path" fill="#4C5072"></path>
                <path d="M35.5755409,48 L14.4244591,48 C13.6374988,48 13,47.3282923 13,46.5 C13,45.6713062 13.6374988,45 14.4244591,45 L35.5755409,45 C36.3625012,45 37,45.6713062 37,46.5 C37,47.3282923 36.3625012,48 35.5755409,48 Z" id="Path" fill="#4C5072"></path>
                <path d="M47,6.62025095 L47,28.3805933 C47,30.3794142 45.5319062,32 43.7215504,32 L5.27921436,32 C3.46771132,32 2,30.3794142 2,28.3805933 L2,6.62025095 C2,4.62016367 3.46771132,3 5.27921436,3 L43.7215504,3 C45.5319062,3 47,4.62016367 47,6.62025095 Z" id="Path" fill="#B4D2D7"></path>
                <path d="M47,6.62025095 L47,28.3805933 C47,30.3794142 45.5644939,32 43.7943231,32 L25,32 L25,3 L43.7943231,3 C45.5644939,3 47,4.62016367 47,6.62025095 Z" id="Path" fill="#95DAE8"></path>
                <path d="M25,3 L25,11 L3,11 L3,6.67398519 C3,4.64421125 4.43505893,3 6.20626119,3 L25,3 Z" id="Path" fill="#FFFFFF"></path>
                <path d="M44.000148,33 L5.99985205,33 C3.79409304,33 2,31.0413973 2,28.6343007 L2,7.36569933 C2,4.95860259 3.79409304,3 5.99985205,3 L44.000148,3 C46.205907,3 48,4.95860259 48,7.36569933 L48,28.6343007 C48,31.0413973 46.205907,33 44.000148,33 L44.000148,33 Z M5.99985205,4.65575572 C4.63065597,4.65575572 3.51662475,5.87126946 3.51662475,7.36569933 L3.51662475,28.6343007 C3.51662475,30.1287306 4.63065597,31.3446569 5.99985205,31.3446569 L44.000148,31.3446569 C45.369344,31.3446569 46.4833752,30.1287306 46.4833752,28.6343007 L46.4833752,7.36569933 C46.4833752,5.87126946 45.369344,4.65575572 44.000148,4.65575572 L5.99985205,4.65575572 Z" id="Shape" fill="#353A59"></path>
                <path d="M8,7.49977821 C8,8.32820585 7.32864963,9 6.50022185,9 C5.67179406,9 5,8.32820585 5,7.49977821 C5,6.67135046 5.67179406,6 6.50022185,6 C7.32864963,6 8,6.67135046 8,7.49977821 Z" id="Path" fill="#F9D35A"></path>
                <path d="M13,7.49977821 C13,8.32820585 12.3286495,9 11.5002218,9 C10.6717942,9 10,8.32820585 10,7.49977821 C10,6.67135046 10.6717942,6 11.5002218,6 C12.3286495,6 13,6.67135046 13,7.49977821 Z" id="Path" fill="#95DAE8"></path>
                <path d="M18,7.49977821 C18,8.32820585 17.3286496,9 16.5002218,9 C15.6717941,9 15,8.32820585 15,7.49977821 C15,6.67135046 15.6717941,6 16.5002218,6 C17.3286496,6 18,6.67135046 18,7.49977821 Z" id="Path" fill="#FF435E"></path>
                <g id="Group" fill="#353A59">
                    <path d="M22.1466105,16.9077181 L5.63589229,16.9077181 C5.21175531,16.9077181 4.86800527,16.5306208 4.86800527,16.0658557 C4.86800527,15.6010906 5.21175531,15.2244128 5.63589229,15.2244128 L22.1466105,15.2244128 C22.5707475,15.2244128 22.9144975,15.6010906 22.9144975,16.0658557 C22.9144975,16.5306208 22.5707475,16.9077181 22.1466105,16.9077181 Z" id="Path"></path>
                    <path d="M22.1466105,20.5822148 L5.63589229,20.5822148 C5.21175531,20.5822148 4.86800527,20.2055369 4.86800527,19.7407719 C4.86800527,19.2760067 5.21175531,18.8993289 5.63589229,18.8993289 L22.1466105,18.8993289 C22.5707475,18.8993289 22.9144975,19.2760067 22.9144975,19.7407719 C22.9144975,20.2055369 22.5707475,20.5822148 22.1466105,20.5822148 Z" id="Path"></path>
                    <path d="M18.3722509,24.2567114 L5.63589229,24.2567114 C5.21175531,24.2567114 4.86800527,23.8800335 4.86800527,23.4152685 C4.86800527,22.9505033 5.21175531,22.5738255 5.63589229,22.5738255 L18.3722509,22.5738255 C18.7963878,22.5738255 19.1401378,22.9505033 19.1401378,23.4152685 C19.1401378,23.8800335 18.7963878,24.2567114 18.3722509,24.2567114 Z" id="Path"></path>
                    <path d="M31.6257655,22.6434564 C31.4293917,22.6434564 31.2330178,22.5612416 31.0829621,22.396812 L27.4230582,18.3863255 C27.2791273,18.2286074 27.1979747,18.0146812 27.1979747,17.7915269 C27.1979747,17.5683725 27.2791273,17.3540268 27.4230582,17.1963087 L31.0829621,13.1858222 C31.3830735,12.8573826 31.8692233,12.8573826 32.1689518,13.1858222 C32.4686804,13.5146812 32.4686804,14.0473993 32.1689518,14.3758389 L29.0522342,17.7911074 L32.1689518,21.2063758 C32.4686804,21.5352349 32.4686804,22.067953 32.1689518,22.3963926 C32.0188961,22.5612416 31.8225223,22.6434564 31.6257655,22.6434564 Z" id="Path"></path>
                    <path d="M39.5503898,22.6434564 C39.3540159,22.6434564 39.1572592,22.5612416 39.0075864,22.396812 C38.707475,22.067953 38.707475,21.5352349 39.0075864,21.2067953 L42.124304,17.7915269 L39.0075864,14.3762584 C38.707475,14.0473993 38.707475,13.5146812 39.0075864,13.1862416 C39.3073148,12.857802 39.7934647,12.8573826 40.093576,13.1862416 L43.75348,17.1967282 C43.8974109,17.3544463 43.9781807,17.5683725 43.9781807,17.7915269 C43.9781807,18.0146812 43.8974109,18.2290268 43.75348,18.3867449 L40.093576,22.396812 C39.9435203,22.5612416 39.7471464,22.6434564 39.5503898,22.6434564 L39.5503898,22.6434564 Z" id="Path"></path>
                    <path d="M34.1330735,24.9760906 C34.0718263,24.9760906 34.0101963,24.9681208 33.9481834,24.9513423 C33.5362959,24.839765 33.2851823,24.3838088 33.3870059,23.9324665 L36.2472509,11.2462249 C36.3490743,10.795302 36.7651726,10.5197148 37.1770601,10.6312919 C37.5885649,10.7428692 37.8400612,11.1988254 37.7382377,11.6501678 L34.8779927,24.3364093 C34.7914811,24.7197987 34.4779719,24.9760906 34.1330735,24.9760906 Z" id="Path"></path>
                    <path d="M5.89504454,39.0079698 L4.02738722,39.0079698 C1.80334774,39.0079698 0,37.0318792 0,34.5947986 L0,4.46686239 C0,2.03020134 1.80334774,0.0541107114 4.02738722,0.0541107114 L5.84681231,0.0541107114 C3.64535776,0.0822147651 1.86765732,2.04781874 1.86765732,4.46686239 L1.86765732,34.5947986 C1.86765732,37.0318792 3.67100506,39.0079698 5.89504454,39.0079698 Z" id="Path"></path>
                    <path d="M18.4733088,47.9618288 L14.4696548,47.9618288 C13.6799485,47.9618288 13.0391495,47.2604866 13.0391495,46.3955537 C13.0391495,45.9626678 13.1999235,45.5708892 13.4579273,45.2869128 C13.7166968,45.0033557 14.0742275,44.8280202 14.4696548,44.8280202 L18.4733088,44.8280202 C18.0778814,44.8280202 17.7203508,45.0033557 17.4615813,45.2869128 C17.202429,45.5708892 17.0428034,45.9626678 17.0428034,46.3955537 C17.0428034,47.2604866 17.6828368,47.9618288 18.4733088,47.9618288 Z" id="Path"></path>
                </g>
            </g>
            <g id="coding-(2)" opacity="0.5" transform="translate(127.000000, 73.000000)" fill-rule="nonzero">
                <path d="M35.2759259,49.9314854 L14.6266082,49.9314854 C14.6266082,47.8917364 16.1675439,46.2379707 18.0681287,46.2379707 L31.834308,46.2379707 C33.7349903,46.2378661 35.2759259,47.8917364 35.2759259,49.9314854" id="Path" fill="#E8EDEE"></path>
                <polygon id="Path" fill="#B0B6BB" points="30.9739766 46.2378661 18.9285575 46.2378661 20.6493177 38.8508368 29.2532164 38.8508368"></polygon>
                <path d="M49.9026316,31.4637029 L0,31.4637029 L0,3.30041841 C0,1.51548117 1.34824561,0.0685146444 3.01140351,0.0685146444 L46.8912281,0.0685146444 C48.554386,0.0685146444 49.9026316,1.51548117 49.9026316,3.30041841 L49.9026316,31.4637029 L49.9026316,31.4637029 Z" id="Path" fill="#38454F"></path>
                <path d="M46.8911306,38.8508368 L3.01140351,38.8508368 C1.34824561,38.8508368 0,37.4038703 0,35.6189331 L0,31.4637029 L49.9025341,31.4637029 L49.9025341,35.6189331 C49.9025341,37.4038703 48.5542885,38.8508368 46.8911306,38.8508368" id="Path" fill="#E8EDEE"></path>
                <g id="Group" transform="translate(6.822612, 3.661088)" fill="#EA6148">
                    <path d="M35.3364522,24.1091004 L22.4306043,24.1091004 C21.9547758,24.1091004 21.5701754,23.6953975 21.5701754,23.1856695 C21.5701754,22.6759414 21.9547758,22.2622385 22.4306043,22.2622385 L35.3364522,22.2622385 C35.8122807,22.2622385 36.1968811,22.6759414 36.1968811,23.1856695 C36.1967836,23.6953975 35.8121832,24.1091004 35.3364522,24.1091004" id="Path"></path>
                    <path d="M9.52475634,18.5687238 L0.9208577,18.5687238 C0.44502924,18.5687238 0.0604288499,18.1550209 0.0604288499,17.6452929 C0.0604288499,17.1355649 0.44502924,16.7218619 0.9208577,16.7218619 L9.52475634,16.7218619 C10.0005848,16.7218619 10.3851852,17.1355649 10.3851852,17.6452929 C10.3851852,18.1550209 10.0005848,18.5687238 9.52475634,18.5687238" id="Path"></path>
                    <path d="M31.0345029,18.5687238 L18.128655,18.5687238 C17.6528265,18.5687238 17.2682261,18.1550209 17.2682261,17.6452929 C17.2682261,17.1355649 17.6528265,16.7218619 18.128655,16.7218619 L31.0345029,16.7218619 C31.5103314,16.7218619 31.8949318,17.1355649 31.8949318,17.6452929 C31.8948343,18.1550209 31.5102339,18.5687238 31.0345029,18.5687238" id="Path"></path>
                    <path d="M13.8267057,18.5687238 C13.7148148,18.5687238 13.6030214,18.5410042 13.4998051,18.4948745 C13.3879142,18.4487448 13.3019493,18.3841004 13.2158869,18.3009414 C13.0601365,18.125523 12.9663743,17.8946653 12.9663743,17.6452929 C12.9663743,17.3959205 13.0601365,17.1651674 13.2158869,16.9896444 C13.3019493,16.90659 13.3880117,16.8419456 13.4998051,16.7957113 C13.8086745,16.6572176 14.1966862,16.7310669 14.4376218,16.9896444 C14.5924951,17.1650628 14.6871345,17.4051255 14.6871345,17.6452929 C14.6871345,17.8853556 14.5924951,18.1254184 14.4376218,18.3009414 C14.2740741,18.4671548 14.0503899,18.5687238 13.8267057,18.5687238" id="Path"></path>
                    <path d="M18.128655,24.1091004 L5.22280702,24.1091004 C4.74697856,24.1091004 4.36237817,23.6953975 4.36237817,23.1856695 C4.36237817,22.6759414 4.74697856,22.2622385 5.22280702,22.2622385 L18.128655,22.2622385 C18.6044834,22.2622385 18.9890838,22.6759414 18.9890838,23.1856695 C18.9890838,23.6953975 18.6044834,24.1091004 18.128655,24.1091004" id="Path"></path>
                    <path d="M0.9208577,24.1091004 C0.808966862,24.1091004 0.697173489,24.0813808 0.593957115,24.035251 C0.490740741,23.9891213 0.396101365,23.924477 0.310038986,23.841318 C0.154288499,23.6658996 0.0605263158,23.4350418 0.0605263158,23.1856695 C0.0605263158,23.0655858 0.0863547758,22.9456067 0.129337232,22.8348326 C0.172319688,22.714749 0.232553606,22.6224895 0.310038986,22.5301255 C0.516569201,22.3177824 0.809064327,22.2254184 1.08352827,22.2808577 C1.14463938,22.2900628 1.1954191,22.3085774 1.24785575,22.3362971 C1.29863548,22.3548117 1.35107212,22.3824268 1.39415205,22.4193515 C1.44493177,22.4562762 1.48879142,22.4932008 1.53177388,22.5301255 C1.60916179,22.6224895 1.66939571,22.7148536 1.71247563,22.8348326 C1.75545809,22.9456067 1.78128655,23.0656904 1.78128655,23.1856695 C1.78128655,23.4349372 1.68664717,23.665795 1.53177388,23.841318 C1.48879142,23.8782427 1.44483431,23.9151674 1.39415205,23.9520921 C1.35116959,23.9890167 1.29863548,24.0167364 1.24785575,24.0351464 C1.1954191,24.0628661 1.14463938,24.0812762 1.08352827,24.0905858 C1.03274854,24.0997908 0.97251462,24.1091004 0.9208577,24.1091004" id="Path"></path>
                    <path d="M35.3364522,18.5687238 C35.2840156,18.5687238 35.2245614,18.5595188 35.1730019,18.5502092 C35.112768,18.5410042 35.0611111,18.5224895 35.0095517,18.4947699 C34.9578947,18.4762552 34.9063353,18.4486402 34.8538012,18.4117155 C34.8115984,18.3747908 34.768616,18.3378661 34.7256335,18.3009414 C34.569883,18.125523 34.4761209,17.8854603 34.4761209,17.6452929 C34.4761209,17.4052301 34.569883,17.1651674 34.7256335,16.9896444 L34.8538012,16.8788703 C34.9063353,16.8419456 34.9578947,16.8142259 35.0095517,16.7958159 C35.0612086,16.7680962 35.112768,16.7496862 35.1730019,16.7403766 C35.4483431,16.6757322 35.7486355,16.7773013 35.9473684,16.9896444 C35.9817739,17.0357741 36.0161793,17.0820084 36.0505848,17.1373431 C36.0849903,17.1834728 36.1099415,17.2389121 36.1279727,17.2943515 C36.1538012,17.3497908 36.1709552,17.4051255 36.1787524,17.4697699 C36.1882066,17.5252092 36.1967836,17.5898536 36.1967836,17.6451883 C36.1967836,17.700523 36.1882066,17.765272 36.1787524,17.8299163 C36.1710526,17.8853556 36.1538012,17.9406904 36.1279727,17.9961297 C36.1099415,18.051569 36.0849903,18.1069038 36.0505848,18.1623431 C36.0161793,18.2084728 35.9817739,18.2547071 35.9473684,18.3008368 C35.904386,18.3377615 35.8604288,18.3746862 35.8183236,18.4116109 C35.7666667,18.4485356 35.71423,18.4762552 35.6634503,18.4946653 C35.6110136,18.5223849 35.5602339,18.540795 35.4991228,18.5501046 C35.4482456,18.5595188 35.3880117,18.5687238 35.3364522,18.5687238" id="Path"></path>
                    <path d="M35.3364522,7.48807531 L22.4306043,7.48807531 C21.9547758,7.48807531 21.5701754,7.07437238 21.5701754,6.56464435 C21.5701754,6.05491632 21.9547758,5.64121339 22.4306043,5.64121339 L35.3364522,5.64121339 C35.8122807,5.64121339 36.1968811,6.05491632 36.1968811,6.56464435 C36.1968811,7.07437238 35.8121832,7.48807531 35.3364522,7.48807531" id="Path"></path>
                    <path d="M35.3364522,13.0284519 L26.7325536,13.0284519 C26.2567251,13.0284519 25.8721248,12.614749 25.8721248,12.1050209 C25.8721248,11.5952929 26.2567251,11.18159 26.7325536,11.18159 L35.3364522,11.18159 C35.8122807,11.18159 36.1968811,11.5952929 36.1968811,12.1050209 C36.1968811,12.614749 35.8121832,13.0284519 35.3364522,13.0284519" id="Path"></path>
                    <path d="M19.8494152,13.0284519 L18.128655,13.0284519 C17.6528265,13.0284519 17.2682261,12.614749 17.2682261,12.1050209 C17.2682261,11.5952929 17.6528265,11.18159 18.128655,11.18159 L19.8494152,11.18159 C20.3252437,11.18159 20.7098441,11.5952929 20.7098441,12.1050209 C20.7098441,12.614749 20.3252437,13.0284519 19.8494152,13.0284519" id="Path"></path>
                    <path d="M31.0345029,1.94780335 L18.128655,1.94780335 C17.6528265,1.94780335 17.2682261,1.53410042 17.2682261,1.02437238 C17.2682261,0.514644351 17.6528265,0.100941423 18.128655,0.100941423 L31.0345029,0.100941423 C31.5103314,0.100941423 31.8949318,0.514644351 31.8949318,1.02437238 C31.8949318,1.53410042 31.5102339,1.94780335 31.0345029,1.94780335" id="Path"></path>
                    <path d="M35.3364522,1.94780335 C35.2840156,1.94780335 35.2245614,1.93859833 35.1730019,1.9292887 C35.112768,1.92008368 35.0611111,1.90156904 35.0095517,1.87384937 C34.9578947,1.85533473 34.9063353,1.82771967 34.8538012,1.79079498 C34.8115984,1.75387029 34.768616,1.71694561 34.7256335,1.68002092 C34.569883,1.50460251 34.4761209,1.26453975 34.4761209,1.02437238 C34.4761209,0.784309623 34.569883,0.544246862 34.7256335,0.368723849 L34.8538012,0.257949791 C34.9063353,0.221025105 34.9578947,0.193305439 35.0095517,0.174895397 C35.0612086,0.147175732 35.112768,0.12876569 35.1730019,0.119456067 C35.4483431,0.0548117155 35.7486355,0.156380753 35.9473684,0.368723849 C35.9817739,0.414853556 36.0161793,0.461087866 36.0505848,0.516422594 C36.0849903,0.562552301 36.1099415,0.617991632 36.1279727,0.673430962 C36.1538012,0.728870293 36.1709552,0.784205021 36.1787524,0.848849372 C36.1882066,0.904288703 36.1967836,0.968933054 36.1967836,1.02426778 C36.1967836,1.07960251 36.1882066,1.14435146 36.1787524,1.20899582 C36.1710526,1.26443515 36.1538012,1.31976987 36.1279727,1.37520921 C36.1099415,1.43064854 36.0849903,1.48598326 36.0505848,1.54142259 C36.0161793,1.5875523 35.9817739,1.63378661 35.9473684,1.67991632 C35.904386,1.716841 35.8604288,1.75376569 35.8183236,1.79069038 C35.7666667,1.82761506 35.71423,1.85533473 35.6634503,1.87374477 C35.6110136,1.90146444 35.5602339,1.91987448 35.4991228,1.9291841 C35.4482456,1.93849372 35.3880117,1.94780335 35.3364522,1.94780335" id="Path"></path>
                    <path d="M18.9890838,7.48807531 C18.7653996,7.48807531 18.5408382,7.38650628 18.3781676,7.22029289 C18.3007797,7.12792887 18.2405458,7.02635983 18.1974659,6.91558577 C18.154386,6.80481172 18.128655,6.68472803 18.128655,6.56474895 C18.128655,6.44466527 18.1544834,6.32468619 18.1974659,6.21391213 C18.2404483,6.10313808 18.3006823,6.00156904 18.3781676,5.90920502 C18.5760234,5.69686192 18.877193,5.60449791 19.1516569,5.65993724 C19.212768,5.66914226 19.2635478,5.6876569 19.3159844,5.71537657 C19.3667641,5.73389121 19.4192008,5.76150628 19.4622807,5.79843096 C19.5130604,5.83535565 19.5569201,5.87228033 19.5913255,5.90920502 C19.6773879,6.00156904 19.7376218,6.10313808 19.7806043,6.21391213 C19.8235867,6.32468619 19.8494152,6.44476987 19.8494152,6.56474895 C19.8494152,6.68483264 19.8235867,6.80481172 19.7806043,6.91558577 C19.7376218,7.02635983 19.6773879,7.12792887 19.5913255,7.22029289 C19.5569201,7.25721757 19.5130604,7.29414226 19.4622807,7.33106695 C19.4192982,7.36799163 19.3667641,7.3957113 19.3159844,7.41412134 C19.2635478,7.441841 19.212768,7.46025105 19.1516569,7.46956067 C19.1008772,7.47887029 19.0406433,7.48807531 18.9890838,7.48807531" id="Path"></path>
                    <path d="M23.2910331,13.0284519 C23.0578947,13.0284519 22.8427875,12.9268828 22.680117,12.7606695 C22.5243665,12.585251 22.4306043,12.3451883 22.4306043,12.1050209 C22.4306043,11.8649582 22.5243665,11.6248954 22.680117,11.4493724 C22.9984405,11.1077406 23.5835283,11.1077406 23.9018519,11.4493724 C24.0567251,11.6247908 24.1513645,11.8648536 24.1513645,12.1050209 C24.1513645,12.1696653 24.1427875,12.2251046 24.1333333,12.289749 C24.1256335,12.3451883 24.1083821,12.400523 24.0825536,12.4559623 C24.0645224,12.5114017 24.0395712,12.5667364 24.0051657,12.6221757 C23.9707602,12.6683054 23.9363548,12.7145397 23.9019493,12.7606695 C23.7384016,12.9268828 23.5232943,13.0284519 23.2910331,13.0284519" id="Path"></path>
                </g>
                <polygon id="Path" fill="#ECBA16" points="7.74346979 16.6895397 19.7888889 16.6895397 19.7888889 3.76213389 7.74346979 3.76213389"></polygon>
            </g>
            <rect id="Rectangle" stroke="#E5E3D6" fill="#E9F4FE" fill-rule="nonzero" x="0" y="325" width="209" height="48"></rect>
            <rect id="Rectangle" fill="#CACACA" fill-rule="nonzero" x="83" y="343" width="44" height="6" rx="3"></rect>
            <rect id="Rectangle" fill="#CACACA" fill-rule="nonzero" x="67" y="356" width="76" height="6" rx="3"></rect>
        </g>
    </g>
</svg>