<?xml version="1.0" standalone="no"?>
<!DOCTYPE svg PUBLIC "-//W3C//DTD SVG 20010904//EN"
 "http://www.w3.org/TR/2001/REC-SVG-20010904/DTD/svg10.dtd">
<svg version="1.0" xmlns="http://www.w3.org/2000/svg"
 width="2362.000000pt" height="2362.000000pt" viewBox="0 0 2362.000000 2362.000000"
 preserveAspectRatio="xMidYMid meet">
<metadata>
Created by potrace 1.11, written by Peter Selinger 2001-2013
</metadata>
<g transform="translate(0.000000,2362.000000) scale(0.100000,-0.100000)"
fill="#000000" stroke="none">
<path d="M6030 20730 c-41 -10 -138 -34 -215 -54 -211 -53 -717 -177 -742
-182 -11 -2 -158 -38 -325 -79 -348 -87 -433 -108 -993 -245 -225 -56 -484
-119 -575 -140 -91 -22 -181 -44 -200 -50 -19 -5 -192 -48 -385 -95 -469 -115
-556 -136 -582 -141 -12 -2 -35 -9 -50 -15 -16 -6 -29 -10 -31 -9 -1 1 -36 -6
-77 -16 -68 -16 -76 -20 -91 -52 -16 -35 -16 -39 1 -237 2 -22 6 -87 10 -145
3 -58 8 -123 10 -145 3 -22 7 -80 10 -130 3 -49 8 -110 10 -135 2 -25 7 -85
10 -135 10 -150 16 -237 20 -290 11 -136 16 -207 20 -280 3 -44 7 -107 10
-140 2 -33 7 -94 10 -135 6 -87 19 -126 45 -133 38 -10 55 28 54 117 0 79 -11
261 -19 321 -2 17 -7 75 -10 130 -3 55 -8 127 -10 160 -3 33 -7 94 -10 135 -3
41 -8 102 -10 135 -3 33 -7 96 -10 140 -3 44 -7 107 -10 140 -5 59 -9 126 -20
295 -3 47 -8 101 -10 122 -5 40 3 46 50 43 17 -2 102 -6 190 -10 88 -4 192 -8
230 -10 39 -2 138 -6 220 -10 83 -3 182 -8 220 -10 39 -2 135 -7 215 -10 80
-3 181 -8 225 -10 44 -2 141 -7 215 -10 74 -3 176 -8 225 -10 50 -2 153 -7
230 -10 77 -4 174 -8 215 -10 41 -2 145 -7 230 -10 85 -4 180 -8 210 -10 30
-2 127 -7 215 -10 88 -3 187 -8 220 -10 33 -2 128 -6 210 -10 83 -3 186 -8
230 -10 44 -2 143 -7 220 -10 77 -4 178 -8 225 -11 47 -2 146 -6 220 -9 74 -3
171 -7 215 -10 44 -2 143 -7 220 -10 77 -3 176 -8 220 -10 44 -2 139 -7 210
-10 72 -3 173 -8 225 -10 52 -3 149 -7 215 -10 165 -7 320 -14 445 -20 270
-12 353 -16 455 -20 61 -3 155 -7 210 -10 55 -3 145 -7 200 -10 55 -2 163 -7
240 -11 77 -4 152 -6 168 -5 25 1 27 -1 28 -41 2 -76 13 -336 24 -593 6 -123
12 -267 20 -490 3 -82 8 -202 10 -265 10 -226 15 -347 20 -485 3 -77 7 -187
10 -245 5 -112 12 -294 20 -505 9 -223 14 -355 20 -490 3 -71 7 -186 10 -255
3 -69 7 -181 10 -250 3 -69 7 -179 10 -245 3 -66 7 -176 10 -245 5 -121 10
-235 20 -505 3 -71 7 -184 10 -250 3 -66 7 -178 10 -250 3 -71 7 -186 10 -255
3 -69 8 -177 10 -240 4 -107 9 -227 20 -495 3 -60 7 -173 10 -250 3 -77 7
-189 10 -250 2 -60 7 -173 10 -250 3 -77 7 -185 10 -240 3 -55 7 -172 10 -260
3 -88 8 -200 10 -250 2 -49 7 -160 10 -245 3 -85 8 -200 10 -255 2 -55 7 -170
10 -255 3 -85 8 -191 10 -235 2 -44 7 -152 10 -240 3 -88 8 -200 10 -250 2
-49 6 -166 10 -260 3 -93 8 -208 10 -255 2 -47 6 -159 10 -250 3 -91 8 -190
11 -220 12 -147 98 -127 97 24 0 68 -9 310 -18 501 -3 50 -7 153 -10 230 -11
300 -17 446 -30 760 -3 66 -8 179 -10 250 -3 72 -8 182 -10 245 -3 63 -7 176
-10 250 -3 74 -7 187 -10 250 -3 63 -7 176 -10 250 -3 74 -7 185 -10 245 -9
215 -16 392 -20 510 -3 66 -7 172 -10 235 -3 63 -7 176 -10 250 -6 158 -12
316 -20 490 -2 69 -7 188 -10 265 -3 77 -7 190 -10 250 -2 61 -7 171 -10 245
-3 74 -8 189 -10 255 -3 66 -7 174 -10 240 -2 66 -7 174 -10 240 -2 66 -7 181
-10 255 -3 74 -7 187 -10 250 -2 63 -7 180 -10 260 -3 80 -7 186 -10 235 -2
50 -7 164 -10 255 -3 91 -8 208 -10 260 -5 89 -7 157 -20 490 -3 74 -8 189
-10 255 -3 66 -8 179 -10 250 -3 72 -7 180 -10 240 -8 180 -15 351 -20 500 -3
77 -7 185 -10 240 -7 153 -16 410 -18 510 l-2 89 35 8 c33 7 125 24 770 148
240 46 313 60 390 75 56 11 447 87 470 91 14 2 36 7 50 9 14 3 36 7 50 10 14
3 48 9 75 15 28 5 61 11 75 14 27 4 326 62 530 102 69 13 139 27 155 29 17 3
50 10 75 15 25 5 56 12 70 14 14 3 156 30 316 60 161 31 296 56 302 56 5 0 10
-34 12 -77 1 -43 3 -121 5 -173 1 -52 6 -189 10 -305 4 -115 8 -253 10 -305 2
-52 7 -178 10 -280 3 -102 8 -232 10 -290 2 -58 7 -190 10 -295 3 -104 8 -244
10 -310 3 -66 7 -199 10 -295 3 -96 7 -231 10 -300 3 -69 7 -197 10 -285 3
-88 7 -223 10 -300 6 -167 13 -372 20 -590 3 -88 7 -225 10 -305 6 -155 11
-296 20 -590 3 -102 8 -232 10 -290 2 -58 7 -197 10 -310 4 -113 8 -236 10
-274 3 -83 1 -89 -95 -302 -10 -22 -52 -117 -93 -210 -41 -93 -85 -192 -97
-219 -12 -28 -28 -63 -35 -80 -8 -16 -26 -57 -40 -90 -15 -33 -36 -80 -47
-105 -11 -25 -26 -58 -33 -75 -8 -16 -85 -190 -171 -385 -86 -195 -164 -371
-172 -390 -9 -19 -16 -37 -17 -40 -1 -3 -11 -25 -22 -50 -11 -25 -90 -202
-176 -395 -85 -192 -169 -380 -186 -418 -17 -37 -31 -70 -31 -72 0 -2 -11 -28
-25 -57 -23 -51 -437 -987 -545 -1233 -29 -66 -63 -142 -76 -170 -12 -27 -50
-113 -84 -190 -34 -77 -71 -160 -82 -185 -12 -25 -44 -99 -73 -165 -29 -66
-62 -140 -73 -165 -11 -25 -73 -164 -137 -310 -65 -146 -128 -290 -142 -320
-102 -224 -106 -237 -94 -332 2 -13 33 -38 47 -38 16 0 46 60 167 335 80 181
527 1193 557 1260 10 22 37 83 60 135 23 52 51 115 62 140 11 25 44 99 73 165
29 66 64 145 78 175 13 30 75 170 137 310 62 140 123 280 137 310 14 30 68
152 120 270 237 538 477 1080 500 1130 14 30 56 125 93 210 57 132 116 263
175 395 8 17 60 134 115 260 56 127 108 244 115 260 8 17 53 118 100 224 47
107 87 197 89 198 2 2 35 6 72 8 38 3 101 7 139 10 39 2 111 7 160 10 102 6
182 12 306 21 l87 6 -3 -114 c-2 -62 -6 -228 -10 -368 -4 -140 -8 -325 -10
-411 -2 -86 -7 -255 -10 -375 -4 -121 -8 -282 -10 -359 -2 -77 -7 -221 -10
-320 -3 -99 -8 -252 -10 -340 -12 -378 -24 -740 -30 -870 -2 -55 -7 -167 -10
-250 -3 -82 -8 -199 -10 -260 -3 -60 -7 -164 -10 -230 -3 -66 -7 -154 -10
-195 -2 -41 -7 -122 -10 -180 -9 -178 -23 -355 -30 -385 -3 -12 -33 -36 -72
-59 -211 -121 -946 -588 -1953 -1241 -261 -169 -518 -335 -570 -369 -52 -33
-99 -64 -105 -69 -5 -4 -37 -25 -70 -46 -33 -22 -257 -168 -498 -325 -241
-157 -443 -284 -448 -281 -5 3 -66 26 -136 50 -157 54 -518 179 -793 275 -113
39 -281 97 -375 130 -93 32 -327 113 -520 180 -498 173 -885 308 -1295 449
-129 45 -244 85 -255 90 -11 5 -29 12 -40 14 -11 3 -105 35 -210 72 -104 37
-201 71 -215 75 -14 4 -131 45 -260 90 -255 89 -364 127 -715 249 -496 172
-703 244 -785 272 -47 17 -103 36 -125 44 -47 15 -222 76 -505 175 -113 40
-223 78 -245 85 -48 16 -206 71 -445 155 -96 34 -192 66 -212 72 -21 6 -38 13
-39 17 0 3 -2 13 -4 21 -1 8 -6 67 -9 130 -4 63 -9 131 -10 150 -2 19 -7 86
-11 148 -4 63 -8 126 -10 140 -2 15 -6 76 -10 136 -3 60 -8 123 -10 140 -2 17
-7 78 -10 136 -3 58 -8 128 -10 155 -2 28 -7 87 -10 132 -9 129 -32 170 -76
134 -22 -18 -24 -26 -24 -108 0 -48 4 -137 9 -198 4 -60 10 -130 11 -155 7
-96 15 -207 20 -260 2 -30 7 -95 10 -145 3 -49 8 -112 10 -140 3 -27 7 -93 10
-145 3 -52 8 -113 10 -135 2 -22 7 -83 10 -135 7 -124 13 -155 34 -174 9 -8
61 -31 116 -50 55 -19 219 -75 365 -126 146 -50 308 -106 360 -125 52 -18 149
-52 215 -75 66 -23 127 -44 135 -47 8 -3 20 -7 25 -9 9 -2 497 -171 805 -279
376 -131 796 -277 985 -341 72 -25 137 -48 145 -51 8 -3 20 -7 25 -9 6 -1 100
-34 210 -73 110 -38 317 -110 460 -159 143 -50 346 -120 450 -157 105 -37 222
-77 260 -90 39 -13 149 -52 245 -85 96 -34 231 -81 300 -105 69 -23 166 -57
215 -75 50 -17 108 -37 130 -44 49 -16 687 -238 1237 -430 119 -42 219 -76
221 -76 3 0 18 -5 34 -12 15 -6 33 -12 38 -14 6 -1 69 -23 141 -48 111 -39
223 -68 344 -89 14 -3 70 -14 125 -26 55 -11 111 -22 125 -25 22 -4 262 -53
300 -61 26 -6 374 -76 400 -81 14 -3 34 -7 45 -9 11 -2 40 -8 65 -14 25 -5 56
-12 70 -14 14 -3 95 -19 181 -36 85 -17 164 -33 175 -35 10 -2 78 -16 149 -31
72 -15 141 -29 155 -31 23 -4 265 -54 510 -104 52 -11 106 -21 120 -24 14 -3
48 -9 75 -15 28 -6 77 -17 109 -23 62 -14 63 -14 98 -93 62 -142 234 -335 418
-472 126 -93 322 -210 478 -285 70 -34 156 -80 192 -103 242 -155 510 -437
718 -755 42 -63 79 -116 84 -118 4 -2 8 -8 8 -13 0 -8 50 -79 97 -139 7 -8 26
-33 43 -55 114 -146 302 -322 453 -423 125 -85 307 -161 452 -188 79 -16 335
-10 425 9 253 54 495 173 849 416 85 58 166 112 180 120 15 8 28 17 31 21 8
12 212 119 348 183 240 113 413 159 602 159 150 1 259 -22 423 -89 168 -67
268 -87 447 -86 106 1 131 3 250 23 108 17 218 48 348 96 129 48 296 136 407
214 50 36 156 130 239 212 205 204 251 233 367 233 56 -1 78 -7 141 -38 71
-35 145 -87 213 -150 16 -16 46 -41 65 -55 19 -15 37 -30 40 -33 13 -17 157
-103 222 -133 71 -33 184 -71 237 -81 14 -2 49 -9 76 -14 28 -5 118 -8 200 -7
143 2 155 4 264 40 170 57 253 52 331 -17 14 -12 64 -68 112 -123 168 -194
305 -295 446 -328 178 -41 356 35 489 209 80 105 121 375 86 563 -35 184 -127
371 -236 475 -56 54 -101 73 -222 93 -78 12 -90 15 -130 33 -48 22 -100 71
-136 126 -14 22 -43 67 -64 100 -64 100 -149 169 -240 197 -61 18 -143 28
-285 34 -169 7 -221 21 -321 89 -137 93 -261 254 -385 497 -35 70 -61 128 -57
128 4 -1 33 -7 63 -14 156 -37 300 29 362 166 35 78 50 223 34 338 -29 205
-79 290 -188 320 -84 23 -202 30 -263 16 -96 -22 -153 -11 -193 38 -46 57
-145 121 -243 156 -90 33 -267 37 -354 10 -33 -11 -64 -20 -70 -20 -5 0 -30
19 -54 41 -25 23 -61 53 -80 67 -19 15 -45 36 -57 47 -50 46 -267 198 -375
263 -363 219 -689 318 -1029 315 -248 -3 -511 -2 -565 2 -140 10 -309 29 -345
40 -8 2 -31 7 -50 10 -71 11 -227 59 -312 95 -215 92 -361 202 -540 407 -47
54 -132 173 -248 348 -134 201 -259 375 -389 540 -52 66 -98 122 -101 125 -3
3 -16 18 -28 34 -52 67 -200 230 -350 384 -61 63 -63 67 -58 106 3 23 10 86
16 141 11 101 16 149 25 228 13 118 16 146 20 187 3 25 7 63 9 85 35 301 36
293 -36 378 -29 34 -55 64 -58 67 -3 3 -75 88 -160 190 -163 196 -252 302
-260 310 -3 3 -39 45 -80 95 -41 49 -85 101 -96 115 -32 37 -144 170 -186 221
-34 41 -48 58 -101 119 -12 14 -78 93 -147 175 -68 83 -127 152 -130 155 -3 3
-75 88 -159 190 -85 102 -168 201 -185 220 -17 20 -50 58 -72 85 -123 147
-392 467 -429 510 -120 140 -175 211 -176 225 0 8 -2 65 -4 125 -9 267 -15
449 -20 570 -3 72 -7 202 -10 290 -3 88 -7 230 -10 315 -6 152 -8 223 -20 565
-3 94 -7 231 -10 305 -3 74 -7 205 -10 290 -3 85 -8 216 -10 290 -3 74 -7 203
-10 285 -3 83 -7 213 -10 290 -3 77 -7 212 -10 300 -5 152 -9 276 -20 590 -2
77 -7 212 -10 300 -10 298 -15 430 -21 480 -15 138 -46 278 -87 391 -19 52
-74 163 -90 183 -9 10 -13 134 -17 456 -4 354 -8 445 -19 458 -12 16 -279 17
-3630 16 -3470 -1 -3619 -2 -3691 -19z m7118 -257 c-23 -43 -88 -161 -144
-263 l-102 -185 -133 -1 c-92 -1 -169 -8 -244 -23 -60 -12 -227 -44 -370 -72
-143 -27 -339 -65 -435 -84 -96 -18 -249 -48 -340 -65 -91 -17 -199 -38 -240
-46 -41 -9 -82 -17 -90 -18 -14 -3 -67 -13 -120 -23 -14 -2 -59 -11 -100 -20
-41 -8 -88 -17 -104 -19 -15 -2 -35 -6 -45 -8 -9 -3 -32 -8 -51 -11 -19 -3
-102 -19 -185 -35 -82 -16 -161 -31 -175 -34 -14 -2 -108 -20 -210 -40 -102
-20 -198 -39 -215 -42 -16 -2 -73 -13 -125 -24 -52 -11 -158 -31 -235 -46 -77
-14 -149 -28 -160 -30 -11 -2 -54 -10 -95 -18 -41 -8 -77 -13 -80 -11 -3 2
-84 6 -180 10 -96 4 -202 8 -235 10 -33 1 -123 5 -200 9 -77 3 -187 9 -245 11
-58 3 -159 7 -225 10 -66 3 -165 8 -220 10 -55 3 -149 7 -210 10 -208 10 -310
14 -440 20 -71 3 -175 8 -230 10 -254 12 -327 15 -425 20 -58 2 -154 7 -215
10 -107 5 -247 11 -465 20 -58 2 -148 7 -200 9 -52 3 -156 8 -230 11 -74 4
-175 8 -225 11 -49 2 -146 6 -215 9 -69 3 -163 7 -210 10 -47 2 -143 7 -215
10 -71 3 -175 8 -230 10 -55 3 -156 7 -225 10 -69 3 -163 7 -210 10 -47 2
-150 7 -230 11 -80 3 -176 7 -215 9 -38 2 -133 6 -210 9 -77 4 -176 9 -220 11
-153 8 -380 18 -447 19 -70 1 -80 10 -26 20 62 12 73 14 158 36 47 12 92 23
100 25 8 2 119 29 245 60 127 31 240 59 252 61 12 2 33 8 45 13 13 5 25 9 28
9 7 1 386 92 525 126 6 2 24 6 40 10 17 4 84 21 150 38 66 16 127 32 135 33
13 3 261 63 285 69 6 2 21 6 35 9 28 8 516 127 540 132 51 11 851 210 925 229
l90 24 3543 1 3543 1 -43 -77z m118 -510 c-2 -3 -17 5 -33 16 -35 26 -118 49
-157 44 l-28 -4 24 43 c14 24 63 113 109 198 l84 155 3 -224 c1 -123 0 -226
-2 -228z m-94 -161 c148 -66 265 -305 293 -602 3 -30 7 -122 10 -205 3 -82 7
-204 10 -270 5 -131 12 -355 20 -620 3 -93 8 -224 10 -290 3 -66 7 -192 10
-280 6 -175 12 -373 20 -590 8 -218 14 -396 20 -575 3 -91 8 -221 10 -290 3
-69 7 -204 10 -300 5 -169 8 -238 20 -570 6 -166 11 -322 21 -625 3 -104 7
-218 9 -252 l3 -63 -42 -1 c-22 -1 -54 -2 -71 -4 -16 -2 -79 -6 -140 -9 -60
-4 -130 -9 -154 -11 -24 -2 -93 -6 -155 -10 -61 -4 -126 -8 -143 -10 -19 -1
-33 2 -34 9 -3 31 -15 368 -33 916 -7 208 -12 347 -21 610 -3 91 -8 221 -10
290 -8 267 -16 480 -20 605 -3 72 -8 195 -10 275 -2 80 -7 210 -10 290 -2 80
-7 219 -10 310 -3 91 -7 226 -10 300 -2 74 -7 209 -10 300 -3 91 -8 228 -10
305 -3 77 -7 196 -10 265 -5 127 -14 409 -20 600 -2 58 -6 198 -10 312 -7 193
-6 206 11 210 10 1 103 3 208 2 171 -1 196 -3 238 -22z m694 -5952 c69 -82
249 -296 309 -369 11 -13 25 -29 30 -35 6 -6 78 -92 160 -191 83 -99 152 -182
155 -185 3 -3 53 -61 110 -130 58 -69 107 -127 110 -130 3 -3 62 -72 131 -155
68 -82 174 -209 234 -280 61 -72 128 -153 150 -179 22 -27 47 -56 56 -65 8 -9
82 -97 164 -196 83 -99 152 -182 155 -185 3 -3 28 -32 55 -65 28 -33 52 -62
55 -65 3 -3 27 -32 54 -65 28 -33 58 -68 68 -78 10 -10 18 -20 18 -24 0 -3
-22 -26 -49 -52 -26 -25 -119 -113 -206 -196 -265 -253 -246 -237 -272 -220
-307 201 -668 349 -958 391 -245 35 -547 16 -707 -45 l-27 -10 5 142 c2 78 6
207 9 287 3 80 7 233 10 340 3 107 7 256 10 330 2 74 7 236 10 360 4 124 8
286 10 360 6 203 18 684 19 777 l1 83 25 -28 c14 -15 62 -70 106 -122z m2050
-2617 c-2 -10 -7 -49 -11 -88 -3 -38 -8 -83 -10 -100 -6 -44 -13 -112 -20
-180 -3 -33 -8 -73 -10 -90 -2 -16 -7 -61 -10 -100 -4 -38 -8 -71 -9 -73 -2
-1 -28 21 -59 49 -30 27 -105 90 -165 138 l-110 88 76 71 c43 39 131 123 197
186 66 63 124 115 128 116 5 0 6 -8 3 -17z m-2381 -2141 c27 -53 68 -131 91
-172 23 -41 64 -118 91 -170 28 -52 69 -131 93 -175 23 -44 63 -118 88 -165
24 -47 57 -107 72 -135 15 -27 58 -108 95 -180 37 -71 71 -134 75 -140 4 -5
33 -59 65 -120 63 -120 115 -217 165 -310 18 -33 208 -407 422 -832 334 -664
385 -771 366 -768 -13 3 -43 9 -68 15 -25 5 -56 12 -70 14 -14 2 -149 30 -300
61 -151 31 -288 59 -305 61 -16 3 -47 10 -68 15 -21 6 -50 12 -65 14 -15 2
-160 31 -322 64 -162 33 -306 62 -320 65 -14 2 -81 16 -150 30 -69 15 -136 29
-150 31 -32 6 -63 12 -125 25 -27 6 -61 12 -75 15 -14 3 -104 21 -200 41 -96
20 -184 38 -195 40 -11 2 -142 28 -290 58 -149 30 -281 57 -295 60 -14 3 -68
14 -120 25 -112 23 -344 69 -379 76 -21 4 -63 12 -146 29 -11 3 -65 14 -120
25 -55 11 -154 31 -220 45 -66 14 -131 27 -145 29 -14 3 -114 23 -223 46 -109
23 -213 44 -230 47 -18 3 -84 16 -147 29 -63 14 -133 27 -155 31 -22 3 -43 8
-46 10 -4 2 -24 6 -45 10 -22 3 -65 12 -96 19 -32 7 -58 11 -58 9 0 -3 -5 -2
-11 1 -6 4 45 43 113 87 68 45 168 110 223 146 55 36 156 102 225 147 113 74
186 121 231 150 9 5 36 23 60 39 54 36 113 74 609 396 518 335 603 390 650
420 23 14 114 72 203 129 89 58 191 123 227 146 36 23 106 68 155 100 151 97
597 376 645 403 25 14 59 34 75 44 17 10 35 18 40 18 6 0 32 -44 60 -98z"/>
<path d="M13249 18966 c-2 -2 -31 -7 -64 -11 -70 -7 -120 -14 -155 -20 -14 -3
-47 -7 -75 -11 -63 -8 -74 -17 -68 -57 3 -18 6 -33 7 -35 3 -2 184 21 256 33
14 2 45 7 70 10 81 9 100 16 100 34 0 28 -55 72 -71 57z"/>
<path d="M13161 18679 c-19 -4 -62 -10 -95 -14 -114 -12 -129 -19 -151 -72
-26 -63 -24 -214 5 -283 14 -33 54 -53 96 -46 16 3 49 7 74 11 25 3 56 8 70
10 14 2 45 7 70 10 25 4 55 15 66 26 61 57 49 324 -16 359 -21 11 -62 11 -119
-1z m119 -103 c24 -45 18 -152 -9 -179 -10 -10 -124 -30 -243 -43 -53 -6 -57
-4 -73 20 -20 30 -24 131 -6 163 12 24 25 29 91 38 70 10 115 17 117 18 1 1
26 3 55 5 49 2 56 0 68 -22z"/>
<path d="M13096 18110 c-136 -21 -152 -31 -171 -106 -21 -82 -5 -232 28 -276
19 -25 52 -28 147 -13 47 8 108 16 135 20 68 8 92 27 108 81 24 83 10 244 -25
289 -24 30 -49 31 -222 5z m205 -92 c12 -23 16 -112 6 -150 -8 -30 -39 -43
-122 -53 -27 -4 -61 -8 -75 -11 -98 -18 -118 -16 -135 10 -22 34 -23 137 -2
169 14 21 29 26 104 37 48 6 106 15 128 19 53 9 83 3 96 -21z"/>
<path d="M13180 17544 c-41 -7 -104 -16 -140 -19 -92 -10 -107 -18 -105 -52 2
-46 9 -51 62 -43 27 5 73 11 103 15 30 3 62 8 70 10 8 2 38 6 65 10 78 10 119
17 128 22 14 8 7 32 -15 53 -25 23 -46 23 -168 4z"/>
<path d="M13299 17286 c-2 -2 -31 -6 -64 -10 -33 -3 -71 -8 -85 -11 -14 -3
-45 -7 -70 -10 -73 -8 -97 -23 -116 -68 -22 -55 -22 -215 0 -269 15 -35 52
-71 65 -64 3 2 33 7 66 10 33 3 69 8 80 10 11 2 43 6 70 10 75 10 102 24 120
63 32 68 22 263 -16 309 -14 17 -44 35 -50 30z m21 -106 c20 -20 23 -36 23
-118 0 -75 -21 -84 -276 -116 -61 -8 -79 19 -79 119 0 89 16 96 267 128 17 2
33 5 38 6 4 0 16 -8 27 -19z"/>
<path d="M13305 16709 c-27 -3 -72 -9 -100 -13 -27 -4 -57 -9 -65 -11 -8 -2
-40 -6 -70 -10 -104 -11 -107 -13 -105 -57 2 -33 2 -33 51 -32 27 1 69 4 94 8
25 3 74 11 110 16 36 5 83 12 105 15 83 11 92 23 53 67 -21 22 -28 24 -73 17z"/>
<path d="M13265 16429 c-27 -5 -70 -10 -95 -13 -78 -9 -124 -18 -141 -27 -33
-17 -52 -79 -52 -168 0 -115 14 -173 47 -200 15 -12 88 -11 161 3 11 2 51 7
89 11 80 9 114 32 131 91 16 55 11 196 -9 249 -23 59 -42 67 -131 54z m91
-104 c23 -35 24 -133 2 -167 -17 -26 -49 -34 -228 -54 -30 -4 -58 -8 -62 -10
-14 -8 -48 41 -49 70 -3 51 2 100 12 118 17 31 30 35 199 55 25 2 46 6 47 7 1
1 16 3 32 4 23 2 34 -4 47 -23z"/>
<path d="M13315 15859 c-27 -5 -70 -11 -95 -14 -25 -3 -58 -8 -75 -11 -41 -7
-85 -12 -112 -13 -28 -1 -45 -33 -37 -66 6 -25 9 -26 58 -20 28 3 62 8 76 10
14 3 44 7 67 10 62 7 184 25 211 31 29 6 29 35 -1 60 -28 23 -29 23 -92 13z"/>
<path d="M13368 15575 c-2 -1 -28 -6 -58 -9 -30 -4 -68 -9 -85 -11 -16 -3 -43
-7 -60 -10 -16 -2 -56 -8 -88 -11 -58 -7 -75 -19 -71 -54 1 -8 2 -21 3 -28 1
-14 4 -14 129 4 17 2 47 6 65 8 230 30 236 32 234 56 -2 30 -52 70 -69 55z"/>
<path d="M13317 15294 c-2 -2 -35 -7 -137 -20 -81 -10 -92 -13 -115 -28 -32
-21 -47 -74 -48 -165 -1 -124 22 -195 66 -206 37 -10 308 33 328 51 31 28 46
93 43 189 -4 138 -35 189 -110 183 -14 -2 -26 -3 -27 -4z m83 -113 c26 -63 16
-162 -18 -180 -9 -5 -42 -12 -72 -16 -30 -4 -57 -8 -60 -10 -3 -2 -40 -6 -82
-10 -73 -7 -77 -6 -92 17 -23 36 -26 141 -3 171 12 17 61 29 167 42 30 4 57 9
59 11 2 2 23 4 46 4 37 0 44 -4 55 -29z"/>
<path d="M13 17394 c-14 -40 -7 -141 11 -169 11 -17 28 -24 73 -30 31 -4 66
-9 77 -11 17 -3 91 -13 216 -30 19 -2 64 -9 100 -14 89 -13 128 -18 255 -36
61 -8 155 -21 210 -29 55 -8 120 -17 145 -20 25 -3 56 -7 70 -10 14 -2 48 -7
75 -10 28 -3 75 -10 105 -15 30 -5 80 -12 110 -15 30 -3 62 -8 70 -10 8 -2 38
-7 65 -10 28 -3 61 -7 75 -10 14 -2 45 -7 70 -10 25 -4 46 -8 47 -9 3 -3 74
50 -927 -695 -63 -47 -119 -89 -125 -94 -5 -4 -98 -73 -205 -153 -107 -79
-239 -177 -292 -217 -105 -78 -112 -89 -109 -177 1 -64 15 -104 35 -108 9 -2
81 45 169 111 84 63 274 206 422 318 149 113 489 370 757 572 268 202 493 377
499 389 17 32 3 198 -19 220 -11 11 -56 22 -132 33 -139 19 -153 21 -210 31
-25 4 -56 8 -70 9 -14 2 -43 6 -65 9 -22 4 -58 9 -80 12 -22 4 -49 8 -60 10
-41 6 -306 45 -337 49 -18 2 -51 7 -73 10 -110 18 -154 24 -265 40 -14 2 -90
13 -170 25 -80 12 -161 24 -180 26 -19 3 -42 7 -50 9 -8 2 -42 7 -75 11 -33 3
-69 8 -80 10 -11 2 -43 7 -71 10 -50 6 -52 6 -61 -22z"/>
<path d="M3174 17374 c-322 -65 -466 -452 -419 -1129 9 -139 11 -160 19 -235
3 -30 8 -91 11 -135 6 -76 11 -139 20 -215 2 -19 6 -71 10 -115 5 -77 9 -118
20 -240 3 -30 7 -80 10 -110 3 -30 7 -79 10 -107 2 -29 7 -84 10 -123 4 -38 8
-86 10 -105 2 -19 7 -75 10 -125 4 -49 8 -101 10 -115 2 -14 6 -59 10 -100 3
-41 8 -95 10 -120 2 -25 7 -74 10 -110 9 -111 16 -183 20 -230 3 -25 7 -76 10
-115 5 -65 10 -119 20 -220 2 -22 7 -80 10 -130 4 -49 8 -101 10 -115 2 -14 6
-59 10 -100 3 -41 8 -93 10 -115 2 -22 6 -76 10 -120 3 -44 8 -98 10 -120 4
-39 8 -78 20 -215 10 -122 16 -185 20 -240 5 -69 14 -164 20 -210 3 -19 7 -57
10 -85 5 -43 42 -258 60 -350 27 -135 122 -406 180 -510 103 -185 225 -311
371 -384 201 -99 362 -92 458 21 66 77 123 224 141 363 2 19 6 50 9 67 16 95
22 449 11 608 -2 36 -7 103 -10 150 -3 47 -7 105 -10 130 -2 25 -6 90 -9 145
-7 111 -13 195 -21 300 -3 39 -8 102 -10 140 -3 39 -7 102 -10 140 -7 95 -13
172 -20 285 -3 52 -7 118 -10 145 -2 28 -6 93 -9 145 -14 202 -18 243 -37 340
-15 72 -36 127 -66 167 -37 51 -25 47 -313 97 -160 28 -165 28 -192 7 -36 -29
-53 -99 -52 -221 0 -273 37 -492 99 -582 29 -43 62 -63 120 -72 22 -4 45 -10
51 -14 7 -4 15 -56 19 -117 4 -60 8 -128 10 -150 2 -22 7 -83 10 -135 3 -52 8
-111 10 -130 2 -19 7 -78 10 -130 3 -52 8 -111 10 -130 8 -73 18 -269 17 -360
-1 -164 -31 -276 -84 -309 -52 -32 -148 -2 -206 64 -93 105 -136 277 -167 660
-3 39 -8 90 -10 115 -2 25 -7 81 -10 125 -4 44 -8 96 -10 115 -2 19 -6 73 -9
120 -4 47 -9 109 -11 138 -3 28 -7 76 -10 105 -2 28 -7 88 -10 132 -3 44 -8
96 -10 115 -2 19 -7 73 -10 120 -4 47 -9 103 -11 125 -2 22 -6 74 -9 115 -3
41 -7 95 -10 120 -2 25 -7 79 -10 120 -3 41 -8 95 -10 120 -2 25 -7 79 -10
120 -3 41 -8 95 -10 120 -2 25 -7 77 -10 115 -3 39 -8 95 -10 125 -7 88 -16
191 -20 240 -2 25 -7 79 -10 120 -3 41 -8 95 -10 120 -2 25 -7 79 -10 120 -3
41 -8 95 -10 120 -8 89 -17 196 -20 235 -1 22 -6 85 -11 140 -10 125 -11 302
-2 377 14 105 75 196 134 199 13 1 30 2 37 3 25 4 82 -17 115 -42 51 -39 106
-148 128 -257 2 -11 6 -31 9 -45 18 -84 26 -148 40 -335 17 -217 24 -295 31
-349 3 -27 8 -58 10 -70 3 -12 7 -32 10 -46 10 -53 66 -152 97 -170 29 -18
143 -37 196 -33 80 7 108 136 88 413 -4 58 -9 119 -11 135 -2 17 -7 73 -10
125 -4 52 -9 118 -11 145 -3 28 -7 81 -10 118 -3 37 -7 82 -9 100 -3 18 -8 55
-11 82 -12 97 -16 121 -30 200 -20 108 -21 111 -40 185 -38 148 -103 314 -165
419 -36 63 -122 165 -169 202 -124 97 -290 135 -447 103z"/>
<path d="M4475 17288 c-37 -9 -54 -26 -71 -67 -27 -62 -34 -188 -21 -356 7
-87 14 -179 22 -320 3 -49 8 -110 10 -135 2 -25 7 -90 10 -145 3 -55 8 -125
10 -155 14 -177 22 -289 40 -570 8 -110 13 -195 20 -290 3 -47 8 -116 10 -155
4 -65 9 -129 20 -280 3 -33 7 -96 10 -140 6 -86 13 -194 20 -290 3 -33 7 -100
10 -150 3 -49 8 -115 10 -145 2 -30 7 -98 10 -150 3 -52 8 -117 10 -145 2 -27
7 -90 10 -140 3 -49 7 -117 10 -150 6 -74 13 -173 20 -285 6 -87 12 -174 20
-290 3 -36 7 -100 10 -142 3 -43 7 -111 10 -150 3 -40 7 -107 10 -148 3 -41 7
-102 10 -135 2 -33 7 -105 10 -160 3 -55 7 -118 10 -140 2 -22 7 -80 10 -130
3 -49 8 -101 10 -115 3 -14 7 -56 11 -93 3 -37 7 -76 9 -86 2 -10 6 -42 10
-71 4 -29 9 -62 11 -74 2 -12 7 -37 10 -56 3 -19 15 -73 26 -120 11 -47 22
-96 24 -110 13 -70 102 -306 146 -390 65 -122 94 -163 166 -237 150 -155 355
-231 488 -182 56 21 114 73 151 136 24 42 85 193 77 193 -2 0 0 10 5 23 5 13
12 40 15 60 3 20 9 53 12 73 3 20 7 46 9 57 14 70 20 210 19 482 0 275 -3 394
-19 635 -5 75 -14 234 -20 365 -3 50 -7 131 -10 180 -9 151 -15 255 -20 380
-3 66 -8 147 -10 180 -2 33 -6 114 -10 180 -3 66 -7 152 -10 190 -2 39 -7 122
-10 185 -3 63 -8 144 -10 180 -2 36 -7 117 -10 180 -3 63 -8 147 -10 185 -2
39 -7 124 -10 190 -3 66 -8 155 -10 198 -3 42 -7 123 -10 180 -3 56 -7 136 -9
177 -5 69 -10 172 -21 375 -9 164 -15 283 -20 375 -5 90 -8 129 -20 375 -3 55
-7 132 -10 170 -3 39 -7 120 -10 180 -3 61 -7 146 -10 190 -3 44 -7 125 -10
180 -6 103 -7 116 -26 220 -13 76 -56 163 -92 189 -22 17 -43 20 -121 20 -86
1 -97 -2 -120 -23 -41 -39 -59 -116 -60 -254 0 -109 3 -175 19 -417 4 -62 9
-140 20 -345 3 -49 7 -124 10 -165 22 -360 25 -396 40 -670 8 -139 17 -290 20
-340 2 -30 7 -104 10 -165 6 -116 11 -200 20 -325 2 -41 7 -122 10 -180 3 -58
7 -134 10 -170 3 -36 7 -110 10 -165 3 -55 8 -131 10 -170 3 -38 7 -108 10
-155 11 -219 17 -309 20 -360 2 -30 7 -104 10 -165 4 -60 8 -135 10 -165 2
-30 6 -109 10 -175 3 -66 8 -140 10 -165 3 -25 7 -103 11 -175 3 -71 8 -146 9
-165 1 -19 6 -89 10 -155 4 -66 8 -147 10 -180 6 -87 5 -331 0 -395 -8 -85
-33 -160 -65 -191 -31 -32 -46 -34 -103 -18 -115 32 -189 186 -222 464 -2 22
-7 58 -9 80 -3 22 -8 87 -11 145 -3 58 -7 130 -10 160 -2 30 -6 100 -10 155
-3 55 -8 127 -10 160 -2 33 -7 101 -10 150 -3 50 -7 122 -10 160 -2 39 -7 111
-10 160 -3 50 -8 115 -10 145 -2 30 -7 100 -10 155 -3 55 -7 125 -10 155 -2
30 -7 105 -10 165 -3 61 -8 133 -10 160 -4 58 -12 180 -20 310 -3 50 -8 117
-10 150 -2 33 -7 107 -10 165 -3 58 -7 128 -10 155 -5 57 -15 197 -20 300 -4
83 -14 239 -20 310 -2 28 -7 102 -10 165 -4 63 -8 133 -10 155 -2 22 -6 90
-10 150 -3 61 -8 130 -10 155 -2 25 -7 95 -10 155 -3 61 -8 137 -10 170 -3 33
-7 98 -10 145 -12 187 -16 257 -20 300 -2 25 -7 99 -10 165 -4 65 -8 133 -10
150 -2 16 -7 54 -10 84 -16 127 -68 241 -119 261 -31 11 -159 17 -191 8z"/>
<path d="M6125 17225 c-57 -60 -68 -177 -51 -535 4 -85 9 -189 11 -230 2 -41
6 -129 9 -195 3 -66 8 -174 11 -240 3 -66 7 -154 10 -195 2 -41 7 -140 10
-220 3 -80 8 -172 10 -205 2 -33 7 -127 10 -210 3 -82 8 -179 10 -215 2 -36 7
-126 10 -200 3 -74 7 -171 10 -215 2 -44 7 -138 10 -210 3 -71 8 -175 10 -230
10 -201 15 -302 20 -400 3 -55 7 -155 10 -221 3 -67 7 -159 10 -205 2 -46 7
-147 10 -224 3 -77 8 -174 10 -215 2 -41 7 -136 10 -210 3 -74 8 -169 10 -210
3 -41 7 -129 10 -195 3 -66 7 -165 10 -220 3 -55 7 -156 10 -225 4 -69 8 -156
10 -195 4 -75 14 -286 20 -425 4 -92 13 -284 20 -420 2 -47 7 -143 10 -215 5
-107 17 -215 29 -270 15 -65 22 -88 44 -133 13 -29 33 -59 44 -66 11 -8 131
-58 266 -111 136 -53 258 -101 272 -107 54 -23 68 -28 143 -58 43 -16 86 -30
97 -30 37 0 73 71 86 168 10 80 3 548 -11 662 -17 147 -66 271 -116 298 -13 6
-125 46 -249 87 -123 41 -227 78 -231 83 -4 4 -10 81 -14 172 -5 156 -8 207
-20 480 -10 226 -15 347 -20 470 -3 69 -8 168 -10 220 -9 183 -15 336 -20 470
-3 74 -8 176 -10 225 -9 201 -15 337 -20 460 -2 72 -7 175 -10 230 -3 55 -7
163 -11 240 -3 77 -7 176 -9 220 -2 44 -7 150 -10 235 -3 85 -8 189 -10 230
-2 41 -7 140 -10 220 -10 242 -15 360 -19 465 -3 55 -8 163 -11 240 -3 77 -8
181 -10 232 -3 50 -7 152 -10 225 -3 73 -7 180 -10 238 -2 58 -7 157 -10 220
-17 381 -18 394 -40 510 -9 48 -49 130 -75 155 -28 26 -35 28 -127 31 l-97 3
-31 -34z"/>
<path d="M7515 17220 c-29 -11 -53 -41 -70 -89 -29 -83 -33 -205 -21 -576 7
-189 13 -400 21 -650 2 -82 7 -226 10 -320 3 -93 7 -246 10 -340 3 -93 7 -237
10 -320 3 -82 7 -229 10 -325 3 -96 7 -245 10 -330 3 -85 7 -229 10 -320 6
-207 14 -452 20 -640 2 -80 7 -230 10 -335 3 -104 7 -253 10 -330 3 -77 7
-221 10 -320 6 -221 13 -449 20 -660 7 -205 13 -411 20 -650 3 -104 8 -251 10
-325 2 -74 7 -218 10 -320 9 -313 15 -453 21 -495 20 -156 51 -252 91 -290 15
-13 47 -31 72 -41 25 -9 51 -21 58 -26 17 -14 70 -13 87 1 20 17 44 84 55 156
9 56 7 481 -4 1020 -5 254 -12 672 -21 1166 -3 178 -7 395 -8 482 -2 86 -1
157 3 157 5 0 93 -21 151 -35 8 -2 44 -10 79 -18 220 -47 373 100 466 445 33
122 51 228 71 413 20 191 25 713 11 1335 -4 179 -10 429 -12 555 -5 234 -14
523 -20 605 -3 55 -15 194 -19 235 -15 133 -20 173 -37 270 -34 198 -68 328
-119 459 -91 231 -214 376 -364 426 -65 21 -88 23 -521 34 -66 2 -129 0 -140
-4z m545 -1126 c183 -17 249 -223 265 -829 2 -82 7 -267 11 -410 4 -143 8
-413 8 -600 1 -288 -2 -355 -17 -435 -22 -117 -58 -188 -107 -212 -33 -16 -41
-16 -150 5 -63 12 -120 25 -126 29 -7 5 -12 47 -14 110 -1 57 -3 150 -5 208
-2 58 -6 191 -9 295 -4 105 -8 251 -11 325 -5 134 -10 318 -20 665 -3 99 -7
234 -10 300 -2 66 -7 220 -11 343 l-6 223 74 -6 c40 -3 98 -8 128 -11z"/>
<path d="M2062 15569 c-47 -18 -48 -52 -17 -429 7 -90 13 -171 20 -265 9 -132
16 -237 20 -285 2 -25 6 -88 10 -140 3 -52 8 -110 10 -127 5 -38 -5 -45 -87
-67 -29 -8 -132 -37 -228 -65 -405 -118 -500 -144 -507 -138 -3 4 -8 24 -9 45
-6 95 -15 231 -19 272 -2 25 -7 83 -10 130 -4 79 -8 124 -20 270 -3 30 -7 98
-11 150 -9 159 -14 184 -40 194 -20 8 -51 -9 -65 -35 -10 -19 -7 -156 6 -289
2 -19 6 -78 10 -130 3 -52 8 -115 10 -140 3 -25 7 -88 11 -140 3 -52 7 -111 9
-130 2 -19 6 -81 10 -136 7 -94 6 -102 -11 -107 -11 -3 -136 -40 -279 -81
-143 -41 -314 -91 -380 -110 -66 -19 -121 -34 -122 -32 -1 1 -5 38 -8 82 -3
43 -7 106 -10 139 -6 69 -12 153 -20 280 -3 50 -8 113 -10 140 -2 28 -7 86
-10 130 -3 44 -7 107 -10 140 -3 33 -7 98 -11 145 -9 137 -17 179 -33 181 -3
0 -14 2 -23 4 -10 2 -27 -8 -39 -23 -23 -30 -23 -27 5 -422 11 -146 14 -188
21 -275 3 -44 8 -107 10 -140 5 -66 14 -190 20 -275 2 -30 7 -95 10 -145 10
-136 13 -163 25 -185 15 -29 -4 -32 290 53 85 25 306 89 490 142 184 53 389
112 455 131 66 20 243 71 392 114 150 43 280 85 288 93 8 9 16 30 17 49 2 31
-9 223 -18 313 -2 22 -6 76 -9 120 -3 44 -8 105 -10 135 -2 30 -7 96 -10 145
-4 50 -8 108 -10 130 -2 22 -6 81 -9 130 -4 50 -9 113 -11 140 -2 28 -7 95
-10 150 -9 151 -23 182 -73 164z"/>
<path d="M1925 13118 c-22 -5 -219 -60 -438 -124 -219 -63 -406 -117 -415
-119 -138 -33 -374 -112 -416 -139 -128 -82 -205 -230 -241 -466 -10 -70 -13
-155 -10 -320 3 -124 7 -241 9 -260 2 -19 7 -78 11 -130 3 -52 8 -117 10 -145
8 -95 14 -180 20 -270 12 -176 20 -215 48 -215 7 0 75 18 152 41 77 22 147 42
155 44 8 2 109 31 225 65 116 34 428 124 695 201 267 77 525 152 573 166 94
28 107 40 109 96 2 30 -9 205 -17 292 -2 22 -7 81 -10 130 -3 50 -8 117 -10
150 -6 72 -12 161 -20 270 -3 44 -7 91 -10 105 -2 14 -7 45 -10 70 -31 232
-96 402 -190 492 -56 54 -147 81 -220 66z m105 -241 c102 -43 160 -147 194
-351 9 -52 18 -114 21 -138 8 -94 15 -187 20 -268 3 -47 8 -107 10 -135 2 -27
7 -90 10 -140 3 -49 8 -109 10 -132 2 -24 2 -43 0 -43 -5 0 -90 -23 -160 -44
-190 -55 -500 -144 -1075 -310 -107 -31 -224 -65 -260 -76 -197 -59 -230 -68
-234 -61 -5 7 -12 86 -21 226 -2 39 -7 104 -11 145 -3 41 -8 98 -10 125 -3 28
-6 147 -9 265 -3 188 -1 226 16 298 26 112 61 183 117 237 62 61 114 84 322
143 306 87 463 133 530 153 379 113 469 131 530 106z"/>
<path d="M18055 4159 c-75 -20 -139 -120 -181 -284 -21 -82 -26 -124 -27 -230
-1 -168 27 -271 103 -385 70 -105 165 -139 261 -93 67 32 95 28 218 -36 152
-78 249 -94 346 -56 115 43 178 193 174 410 -3 187 -40 317 -110 379 -79 72
-225 124 -354 127 -100 2 -152 23 -223 89 -74 69 -143 95 -207 79z"/>
</g>
</svg>
