<?xml version="1.0" encoding="UTF-8"?>
<svg width="420px" height="338px" viewBox="0 0 420 338" version="1.1" xmlns="http://www.w3.org/2000/svg" xmlns:xlink="http://www.w3.org/1999/xlink">
    <!-- Generator: Sketch 54.1 (76490) - https://sketchapp.com -->
    <title>Dark Code Editor Window</title>
    <desc>Created with Sketch.</desc>
    <g id="Dark-Code-Editor-Window" stroke="none" stroke-width="1" fill="none" fill-rule="evenodd">
        <rect fill="#FFFFFF" opacity="0" x="0" y="0" width="420" height="338"></rect>
        <g>
            <g id="Base-+-Header">
                <rect id="Base" fill="#F1F1F1" x="105" y="25" width="315" height="313"></rect>
                <g id="Header">
                    <path d="M5.00938743,0 C2.24277915,0 0,2.23663401 0,5.0008954 L0,24.7122642 L420,24.7122642 L420,5.0008954 C420,2.23897713 417.765517,0 414.990613,0 L5.00938743,0 Z" id="Base" fill="#FEFEFE"></path>
                    <g id="Options" transform="translate(5.136364, 6.174528)">
                        <circle id="Icon" fill="#FAA1BC" cx="5.86363636" cy="5.8254717" r="5"></circle>
                        <circle id="Icon" fill="#FFEAA7" cx="22.8636364" cy="5.8254717" r="5"></circle>
                        <circle id="Icon" fill="#80DAD3" cx="38.8636364" cy="5.8254717" r="5"></circle>
                    </g>
                    <text id="DevGulp.js" opacity="0.502599516" font-family="CourierPrimeCode-Regular, Courier Prime Code" font-size="14" font-weight="normal" fill="#1F222E">
                        <tspan x="167.595526" y="18">DevGulp.js</tspan>
                    </text>
                </g>
                <rect id="Rectangle" fill="#F1F1F1" x="0" y="25" width="108" height="313"></rect>
            </g>
            <text id="Line-Numbers" opacity="0.8" font-family="AndaleMono, Andale Mono" font-size="14" font-weight="normal" fill="#858585">
                <tspan x="107.598633" y="49">1</tspan>
                <tspan x="107.598633" y="69.1999998">2</tspan>
                <tspan x="107.598633" y="89.3999996">3</tspan>
                <tspan x="107.598633" y="109.599999">4</tspan>
                <tspan x="107.598633" y="129.799999">5</tspan>
                <tspan x="107.598633" y="149.999999">6</tspan>
                <tspan x="107.598633" y="170.199999">7</tspan>
                <tspan x="107.598633" y="190.399999">8</tspan>
                <tspan x="107.598633" y="210.599998">9</tspan>
                <tspan x="99.1972656" y="230.799998">10</tspan>
                <tspan x="99.1972656" y="250.999998">11</tspan>
                <tspan x="99.1972656" y="271.199998">12</tspan>
                <tspan x="99.1972656" y="291.399998">13</tspan>
                <tspan x="99.1972656" y="311.599998">14</tspan>
                <tspan x="116" y="331.799997"></tspan>
            </text>
        </g>
        <rect id="Rectangle" fill="#FEFEFE" fill-rule="nonzero" x="125" y="40" width="141" height="10" rx="1"></rect>
        <rect id="Rectangle" fill="#000000" fill-rule="nonzero" opacity="0.148251488" x="12" y="65" width="47" height="5" rx="1"></rect>
        <rect id="Rectangle" fill="#FEFEFE" fill-rule="nonzero" x="7" y="30" width="82" height="302" rx="3"></rect>
        <circle id="Oval" fill="#FAA1BC" fill-rule="nonzero" cx="13.5" cy="135.5" r="1.5"></circle>
        <rect id="Rectangle" fill="#000000" fill-rule="nonzero" opacity="0.503376116" x="18" y="134" width="26" height="3" rx="1"></rect>
        <circle id="Oval" fill="#FAA1BC" fill-rule="nonzero" cx="13.5" cy="122.5" r="1.5"></circle>
        <rect id="Rectangle" fill="#000000" fill-rule="nonzero" opacity="0.503376116" x="18" y="121" width="26" height="3" rx="1"></rect>
        <circle id="Oval" fill="#80DAD3" fill-rule="nonzero" cx="13.5" cy="109.5" r="1.5"></circle>
        <rect id="Rectangle" fill="#000000" fill-rule="nonzero" opacity="0.503376116" x="18" y="108" width="26" height="3" rx="1"></rect>
        <circle id="Oval" fill="#80DAD3" fill-rule="nonzero" cx="13.5" cy="96.5" r="1.5"></circle>
        <rect id="Rectangle" fill="#000000" fill-rule="nonzero" opacity="0.503376116" x="18" y="95" width="26" height="3" rx="1"></rect>
        <rect id="Rectangle" fill="#000000" fill-rule="nonzero" opacity="0.5" x="12" y="35" width="22" height="5" rx="1"></rect>
        <rect id="Rectangle" fill="#000000" fill-rule="nonzero" opacity="0.148251488" x="12" y="50" width="36" height="5" rx="1"></rect>
        <rect id="Rectangle" fill="#000000" fill-rule="nonzero" opacity="0.148251488" x="12" y="60" width="36" height="5" rx="1"></rect>
        <rect id="Rectangle" fill="#000000" fill-rule="nonzero" opacity="0.148251488" x="12" y="70" width="36" height="5" rx="1"></rect>
        <rect id="Rectangle" fill="#FEFEFE" fill-rule="nonzero" x="125" y="60" width="213" height="10" rx="1"></rect>
        <rect id="Rectangle" fill="#FEFEFE" fill-rule="nonzero" x="125" y="80" width="282" height="10" rx="1"></rect>
        <rect id="Rectangle" fill="#FEFEFE" fill-rule="nonzero" x="125" y="101" width="282" height="10" rx="1"></rect>
        <rect id="Rectangle" fill="#FEFEFE" fill-rule="nonzero" x="125" y="121" width="141" height="10" rx="1"></rect>
        <rect id="Rectangle" fill="#FEFEFE" fill-rule="nonzero" x="125" y="140" width="141" height="10" rx="1"></rect>
        <rect id="Rectangle" fill="#FEFEFE" fill-rule="nonzero" x="125" y="161" width="213" height="10" rx="1"></rect>
        <rect id="Rectangle" fill="#FEFEFE" fill-rule="nonzero" x="125" y="182" width="141" height="10" rx="1"></rect>
        <rect id="Rectangle" fill="#FEFEFE" fill-rule="nonzero" x="125" y="202" width="282" height="10" rx="1"></rect>
        <rect id="Rectangle" fill="#FEFEFE" fill-rule="nonzero" x="125" y="222" width="213" height="10" rx="1"></rect>
        <rect id="Rectangle" fill="#FEFEFE" fill-rule="nonzero" x="125" y="243" width="141" height="10" rx="1"></rect>
        <rect id="Rectangle" fill="#FEFEFE" fill-rule="nonzero" x="125" y="263" width="213" height="10" rx="1"></rect>
        <rect id="Rectangle" fill="#FEFEFE" fill-rule="nonzero" x="125" y="282" width="141" height="10" rx="1"></rect>
        <rect id="Rectangle" fill="#FEFEFE" fill-rule="nonzero" x="125" y="303" width="282" height="10" rx="1"></rect>
        <rect id="Rectangle" fill="#000000" fill-rule="nonzero" opacity="0.148251488" x="12" y="80" width="36" height="5" rx="1"></rect>
    </g>
</svg>