<?xml version="1.0" encoding="UTF-8"?>
<svg width="52px" height="52px" viewBox="0 0 52 52" version="1.1" xmlns="http://www.w3.org/2000/svg" xmlns:xlink="http://www.w3.org/1999/xlink">
    <!-- Generator: Sketch 54.1 (76490) - https://sketchapp.com -->
    <title>gem-3</title>
    <desc>Created with Sketch.</desc>
    <g id="gem-3" stroke="none" stroke-width="1" fill="none" fill-rule="evenodd">
        <g id="gem" transform="translate(1.000000, 1.000000)" fill-rule="nonzero" stroke="#1F222E" stroke-width="0.25">
            <g id="Path">
                <polygon fill="#FFB9D8" points="15.6862745 -7.10542736e-15 5.88235294 15.4405578 13.3266081 20.5882353 22.4057461 20.4258452 22.5490196 11.50742"></polygon>
                <polygon fill="#FA9AB0" points="22.5545123 20.3968988 5.88235294 15.6862745 14.8085841 48.7248628 17.7459283 50 25.2657597 50 26.4705882 31.008301"></polygon>
                <polygon fill="#FF8080" points="28.0728165 14.4106024 22.5490196 20.3968988 25.190868 50 32.7150015 44.1656166 35.3736308 12.596836"></polygon>
                <polygon fill="#FA9AB0" points="22.5490196 20.3968988 35.2941176 12.4503723 15.8873595 0.0592147228"></polygon>
                <polygon fill="#28C7F7" points="17.6470588 29.670931 11.3588676 30.7137149 10.3332994 38.2352941 7.84313725 43.1254059 10.6441011 50 17.6470588 50"></polygon>
                <polygon fill="#FA9AB0" points="1.33226763e-14 33.6898026 6.69817563 50 10.7843137 50 10.3332994 38.2352941 6.08678834 33.3333333"></polygon>
                <polygon fill="#FFB9D8" points="-8.8817842e-15 33.6082037 10.3332994 38.2352941 17.6470588 29.670931 3.62825669 22.5490196"></polygon>
                <polygon fill="#FF8080" points="50 37.254902 44.2973626 33.3333333 38.2352941 34.7486016 31.9941095 42.5852648 30.8121656 50 37.505001 50"></polygon>
                <polygon fill="#FA9AB0" stroke-linejoin="round" points="38.2352941 34.9086547 50 37.254902 50 16.6666667 40.6523132 26.9569648"></polygon>
                <polygon fill="#FFB9D8" stroke-linejoin="round" points="50 16.6666667 35.3635244 20.5882353 34.3137255 28.0561037 38.2352941 34.7486016"></polygon>
                <polygon fill="#FA9AB0" points="35.2941176 20.8901973 24.5098039 50 30.8121656 50 38.2352941 34.7486016"></polygon>
            </g>
            <g transform="translate(6.000000, 15.000000)" id="Path">
                <polygon fill="#B9CEFF" stroke-linejoin="round" points="11.0609881 0 4 11 9.35986369 15 16 15 16 8.38397741"></polygon>
                <polygon fill="#76B7F8" points="16 14.4220448 4 11 10.503397 34.1081326 12.6434621 35 18.1221964 35 19 21.7166631"></polygon>
                <polygon fill="#287AF7" points="19.8764662 10.2608005 16 14.4220448 17.8539849 35 23.1342387 30.9443547 25 9"></polygon>
                <polygon fill="#76AEF8" stroke-linejoin="round" points="16 14.4220448 25 9 11.0609881 -9.15873658e-15"></polygon>
                <polygon fill="#287AF7" points="12 21 8.15162696 21.718133 6.74509804 26.6666667 6 30.26568 6.74509804 34.9165899 12 35"></polygon>
                <polygon fill="#76AEF8" points="0 23.2566579 4.34772491 35 7 35 6.70725071 26.5294118 3.95087897 23"></polygon>
                <polygon fill="#B9CEFF" points="0 23.2352941 6.74509804 26.6666667 12 20.9942404 2.46721455 16"></polygon>
                <polygon fill="#287AF7" points="34.9076546 25.8937781 30.8391905 23 26.4161297 24.0189932 21.8623805 29.6613907 21 35 25.8832867 35"></polygon>
                <polygon fill="#76AEF8" stroke-linejoin="round" points="27 24.2905913 35 25.8235294 35 10.7076342 28.6435729 18.4972172"></polygon>
                <polygon fill="#B9CEFF" stroke-linejoin="round" points="35 10.7076342 25 15 24 20.1884312 26.75 25"></polygon>
                <polygon fill="#76B7F8" stroke-linejoin="round" points="25 15 18 35 22.1325486 35 27 24.5214691"></polygon>
            </g>
            <g transform="translate(11.000000, 25.000000)" id="Path">
                <polygon fill="#9BFCFF" stroke-linejoin="round" points="8.30747739 0 3 7.85381708 7.03567638 11 11.9081602 11 12 6.1482501"></polygon>
                <polygon fill="#76E2F8" stroke-linejoin="round" points="12.1666667 10.6842105 3 8 7.76915777 24.3682606 9.33853886 25 13.3562773 25 14 15.5909697"></polygon>
                <polygon fill="#28C7F7" points="14.5843108 7.30760585 12 10.2835459 13.2359899 25 17 24.9165899 18 7"></polygon>
                <polygon fill="#76E2F8" stroke-linejoin="round" points="12 10.4450986 18 6.86449121 8.30747739 0"></polygon>
                <polygon fill="#28C7F7" points="9 15 6.43441797 15.5129521 4.80210675 20 4.80210675 21.714606 5 25 9 25"></polygon>
                <polygon fill="#76E2F8" points="0 16.1924934 3.10551779 25 5 25 4.79089336 18.6470588 2.82205641 16"></polygon>
                <polygon fill="#9BFCFF" stroke-linejoin="round" points="0 16.1924934 5 19.6903266 9 15 1.77550641 12"></polygon>
                <polygon fill="#28C7F7" points="25 18.1176471 22.0279932 16 18.8686641 16.7642449 15.6159861 20.996043 15 25 18.4880619 25"></polygon>
                <polygon fill="#76E2F8" stroke-linejoin="round" points="20 17.38842 25 18 25 8 21.0272331 13.384091"></polygon>
                <polygon fill="#9BFCFF" stroke-linejoin="round" points="25 8 17.7272727 11.0971096 17 14.8407653 19.6666667 18"></polygon>
                <polygon fill="#76E2F8" stroke-linejoin="round" points="17.7272727 11.0971096 14 25 16.7550324 25 20 17.5231631"></polygon>
            </g>
        </g>
    </g>
</svg>