<?xml version="1.0" encoding="UTF-8"?>
<svg width="52px" height="52px" viewBox="0 0 52 52" version="1.1" xmlns="http://www.w3.org/2000/svg" xmlns:xlink="http://www.w3.org/1999/xlink">
    <!-- Generator: Sketch 54.1 (76490) - https://sketchapp.com -->
    <title>gem</title>
    <desc>Created with Sketch.</desc>
    <g id="Page-1" stroke="none" stroke-width="1" fill="none" fill-rule="evenodd">
        <g id="gem-1" fill-rule="nonzero" stroke="#1F222E" stroke-width="0.25">
            <g id="gem" transform="translate(1.000000, 1.000000)">
                <g id="Path">
                    <polygon fill="#9BFCFF" points="15.6892809 -1.0658141e-14 5.88235294 15.4405578 13.3266081 20.5882353 22.4057461 20.4258452 22.5490196 11.50742"></polygon>
                    <polygon fill="#76E2F8" points="22.5545123 20.3968988 5.88235294 15.6862745 14.8085841 48.7248628 17.7459283 50 25.2657597 50 26.4705882 31.008301"></polygon>
                    <polygon fill="#28C7F7" points="28.0728165 14.4106024 22.5490196 20.3968988 25.190868 50 32.7150015 44.1656166 35.3736308 12.596836"></polygon>
                    <polygon fill="#76E2F8" points="22.5490196 20.3968988 35.2941176 12.4503723 15.6862745 -8.8817842e-15"></polygon>
                    <polygon fill="#28C7F7" points="17.6470588 29.670931 11.3588676 30.7137149 10.3332994 38.2352941 7.84313725 43.1254059 10.6441011 50 17.6470588 50"></polygon>
                    <polygon fill="#76E2F8" points="1.33226763e-14 33.6898026 6.69817563 50 10.7843137 50 10.3332994 38.2352941 6.08678834 33.3333333"></polygon>
                    <polygon fill="#9BFCFF" points="-8.8817842e-15 33.6082037 10.3332994 38.2352941 17.6470588 29.670931 3.62825669 22.5490196"></polygon>
                    <polygon fill="#28C7F7" points="50 37.254902 44.2973626 33.3333333 38.2352941 34.7486016 31.9941095 42.5852648 30.8121656 50 37.505001 50"></polygon>
                    <polygon fill="#76E2F8" points="38.2352941 34.9086547 50 37.254902 50 16.6666667 40.6523132 26.9569648"></polygon>
                    <polygon fill="#9BFCFF" points="50 16.6666667 35.3635244 20.5882353 34.3137255 28.0561037 38.2352941 34.7486016"></polygon>
                    <polygon fill="#76E2F8" points="35.2941176 20.8901973 24.5098039 50 30.8121656 50 38.2352941 34.7486016"></polygon>
                </g>
            </g>
        </g>
    </g>
</svg>