<?xml version="1.0"?>
<svg xmlns="http://www.w3.org/2000/svg" xmlns:xlink="http://www.w3.org/1999/xlink" version="1.1" id="Layer_1" x="0px" y="0px" viewBox="0 0 512 512" style="enable-background:new 0 0 512 512;" xml:space="preserve" width="512px" height="512px" class=""><g><g>
	<g>
		<polygon points="315.149,247.512 313.764,256.374 324.486,256.374 325.871,247.512   " data-original="#000000" class="active-path" data-old_color="#000000" fill="#495057"/>
	</g>
</g><g>
	<g>
		<path d="M505.749,6.249C501.75,2.247,496.323,0,490.664,0L21.33,0.03C9.55,0.031,0,9.58,0,21.363v469.303    C0,502.448,9.55,512,21.333,512h469.333c11.782,0,21.333-9.552,21.333-21.333V21.333C512,15.674,509.751,10.249,505.749,6.249z     M185.033,336.213c-31.142,0-49.737-19.085-49.737-51.052v-58.507c0-31.378,19.275-50.87,50.303-50.87    c32.526,0,49.544,21.222,49.544,42.186c0,16.441-11.814,18.216-16.895,18.216c-10.934,0-16.35-7.347-16.866-14.63    c-0.006-0.087-0.011-0.172-0.016-0.259c-0.42-8.996-4.988-12.665-15.768-12.665c-10.458,0-16.511,2.948-16.511,18.022v58.507    c0.001,13.444,4.517,18.21,17.267,18.21c13.35,0,14.003-5.221,15.083-13.871c1.084-8.658,7.68-14.252,16.811-14.252    c5.08,0,16.895,1.793,16.895,18.405C235.143,314.802,217.93,336.213,185.033,336.213z M370.606,247.512h-11.686l-1.439,8.86h5.953    c8.341,0,15.388,7.132,15.388,15.573c0,8.484-6.564,15.386-14.63,15.386h-11.817l-4.447,28.534    c-0.05,0.316-0.111,0.626-0.189,0.934c-1.711,6.875-8.286,11.864-15.633,11.864c-9.263,0-16.519-7.09-16.519-16.141    c0-0.539,0.041-1.078,0.122-1.61l3.6-23.582h-10.58l-4.439,28.355c-1.199,8.381-8.954,12.978-15.635,12.978    c-9.261,0-16.516-7.09-16.516-16.141c0-0.521,0.038-1.04,0.114-1.556l3.483-23.636h-5.575c-8.805,0-15.198-6.471-15.198-15.386    c0-8.734,6.345-15.573,14.441-15.573h11.575l1.331-8.86h-5.733c-8.805,0-15.198-6.551-15.198-15.576    c0-8.626,6.345-15.383,14.441-15.383h11.649l4.049-25.543c0.034-0.22,0.077-0.439,0.127-0.657    c1.469-6.576,7.689-11.17,15.128-11.17c9.523,0,16.705,6.939,16.705,16.141c0,0.563-0.044,1.126-0.134,1.684l-3.123,19.547h10.887    l4.049-25.543c0.034-0.215,0.075-0.428,0.121-0.64c1.461-6.586,7.683-11.187,15.134-11.187c9.522,0,16.705,6.939,16.705,16.141    c0,0.563-0.044,1.126-0.134,1.684l-3.123,19.547h5.99c8.339,0,15.383,7.044,15.383,15.383    C385.236,240.525,378.672,247.512,370.606,247.512z" data-original="#000000" class="active-path" data-old_color="#000000" fill="#495057"/>
	</g>
</g></g> </svg>
