<?xml version="1.0" encoding="UTF-8"?>
<svg width="434px" height="581px" viewBox="0 0 434 581" version="1.1" xmlns="http://www.w3.org/2000/svg" xmlns:xlink="http://www.w3.org/1999/xlink">
    <!-- Generator: Sketch 54.1 (76490) - https://sketchapp.com -->
    <title>Artboard</title>
    <desc>Created with Sketch.</desc>
    <g id="Artboard" stroke="none" stroke-width="1" fill="none" fill-rule="evenodd">
        <rect fill="#FFFFFF" x="0" y="0" width="434" height="581"></rect>
        <g id="Layouts-/-Article-1" opacity="0.5">
            <g>
                <g id="Window">
                    <rect id="Rectangle" fill="#C6E6FF" x="0" y="0" width="434" height="588" rx="6"></rect>
                    <g id="Top-bar">
                        <path d="M6,0 L428,0 C431.313708,-6.08718376e-16 434,2.6862915 434,6 L434,47.04 L0,47.04 L0,6 C-4.05812251e-16,2.6862915 2.6862915,6.08718376e-16 6,0 Z" id="Rectangle" fill="#9CD3FF"></path>
                        <circle id="Oval" fill="#77BAF4" cx="20" cy="24" r="6"></circle>
                        <circle id="Oval" fill="#77BAF4" cx="40" cy="24" r="6"></circle>
                        <circle id="Oval" fill="#77BAF4" cx="60" cy="24" r="6"></circle>
                    </g>
                </g>
                <rect id="Rectangle" fill="#1583D8" x="51.2909091" y="105.84" width="94.6909091" height="17.64" rx="8.82"></rect>
                <path d="M60.1109091,176.4 L223.961818,176.4 C228.83297,176.4 232.781818,180.348849 232.781818,185.22 L232.781818,185.22 C232.781818,190.091151 228.83297,194.04 223.961818,194.04 L60.1109091,194.04 C55.2397576,194.04 51.2909091,190.091151 51.2909091,185.22 L51.2909091,185.22 C51.2909091,180.348849 55.2397576,176.4 60.1109091,176.4 Z" id="Rectangle" fill="#89CBFF"></path>
                <path d="M60.1109091,211.68 L223.961818,211.68 C228.83297,211.68 232.781818,215.628849 232.781818,220.5 L232.781818,220.5 C232.781818,225.371151 228.83297,229.32 223.961818,229.32 L60.1109091,229.32 C55.2397576,229.32 51.2909091,225.371151 51.2909091,220.5 L51.2909091,220.5 C51.2909091,215.628849 55.2397576,211.68 60.1109091,211.68 Z" id="Rectangle" fill="#89CBFF"></path>
                <path d="M60.1109091,246.96 L223.961818,246.96 C228.83297,246.96 232.781818,250.908849 232.781818,255.78 L232.781818,255.78 C232.781818,260.651151 228.83297,264.6 223.961818,264.6 L60.1109091,264.6 C55.2397576,264.6 51.2909091,260.651151 51.2909091,255.78 L51.2909091,255.78 C51.2909091,250.908849 55.2397576,246.96 60.1109091,246.96 Z" id="Rectangle" fill="#89CBFF"></path>
                <path d="M60.1109091,282.24 L223.961818,282.24 C228.83297,282.24 232.781818,286.188849 232.781818,291.06 L232.781818,291.06 C232.781818,295.931151 228.83297,299.88 223.961818,299.88 L60.1109091,299.88 C55.2397576,299.88 51.2909091,295.931151 51.2909091,291.06 L51.2909091,291.06 C51.2909091,286.188849 55.2397576,282.24 60.1109091,282.24 Z" id="Rectangle" fill="#89CBFF"></path>
                <path d="M60.1109091,317.52 L223.961818,317.52 C228.83297,317.52 232.781818,321.468849 232.781818,326.34 L232.781818,326.34 C232.781818,331.211151 228.83297,335.16 223.961818,335.16 L60.1109091,335.16 C55.2397576,335.16 51.2909091,331.211151 51.2909091,326.34 L51.2909091,326.34 C51.2909091,321.468849 55.2397576,317.52 60.1109091,317.52 Z" id="Rectangle" fill="#89CBFF"></path>
                <rect id="Rectangle" fill="#89CBFF" x="51.2909091" y="352.8" width="331.418182" height="17.64" rx="8.82"></rect>
                <rect id="Rectangle" fill="#89CBFF" x="51.2909091" y="388.08" width="331.418182" height="17.64" rx="8.82"></rect>
                <rect id="Rectangle" fill="#89CBFF" x="51.2909091" y="423.36" width="331.418182" height="17.64" rx="8.82"></rect>
                <rect id="Rectangle" fill="#89CBFF" x="51.2909091" y="458.64" width="331.418182" height="17.64" rx="8.82"></rect>
                <rect id="Rectangle" fill="#89CBFF" x="51.2909091" y="493.92" width="173.6" height="17.64" rx="8.82"></rect>
            </g>
            <rect id="Rectangle-2" fill="#AADAFF" x="253" y="177" width="130" height="147" rx="2"></rect>
        </g>
    </g>
</svg>