<?xml version="1.0" encoding="UTF-8"?>
<svg width="52px" height="52px" viewBox="0 0 52 52" version="1.1" xmlns="http://www.w3.org/2000/svg" xmlns:xlink="http://www.w3.org/1999/xlink">
    <!-- Generator: Sketch 54.1 (76490) - https://sketchapp.com -->
    <title>diamond-2</title>
    <desc>Created with Sketch.</desc>
    <g id="diamond-2" stroke="none" stroke-width="1" fill="none" fill-rule="evenodd">
        <g id="diamond" transform="translate(1.000000, 1.000000)" fill-rule="nonzero" stroke="#1F222E" stroke-linejoin="round" stroke-width="0.25">
            <polygon id="Path" fill="#FFE182" points="35.1688477 15.3384793 25 49.9165899 50 15.3384793"></polygon>
            <g id="Group" fill="#FFCD73">
                <polygon id="Path" points="10.3448242 0.0834101382 0 15.3384793 14.8311523 15.3384793"></polygon>
                <polygon id="Path" points="35.1688477 15.3384793 50 15.3384793 39.6551758 0.0834101382"></polygon>
                <polygon id="Path" points="35.1688477 15.3384793 25 0.0834101382 14.8311523 15.3384793"></polygon>
            </g>
            <polygon id="Path" fill="#FFAA64" points="25 0.0834101382 10.3448242 0.0834101382 14.8311523 15.3384793"></polygon>
            <polygon id="Path" fill="#FFE182" points="39.6551758 0.0834101382 25 0.0834101382 35.1688477 15.3384793"></polygon>
            <polygon id="Path" fill="#FFAA64" points="14.8311523 15.3384793 25 49.9165899 35.1688477 15.3384793"></polygon>
            <polygon id="Path" fill="#FF8C5A" points="0 15.3384793 25 49.9165899 14.8311523 15.3384793"></polygon>
        </g>
        <g id="diamond" transform="translate(3.000000, 21.000000)" fill-rule="nonzero" stroke="#1F222E" stroke-width="0.25">
            <polygon id="Path" fill="#FFC1C1" stroke-linejoin="round" points="17.8810469 8 13 25 25 8"></polygon>
            <g id="Group" fill="#FD8989" stroke-linejoin="round">
                <polygon id="Path" points="4.90509581 0.0432238806 0 7.95677612 8 7.95677612"></polygon>
                <polygon id="Path" points="18 8 25 8 19.8275879 0.0432238806"></polygon>
                <polygon id="Path" points="18.1739341 8 13.0869671 0.0432238806 8 8"></polygon>
            </g>
            <polygon id="Path" fill="#FF6E6E" points="13.0869671 -2.22044605e-16 5.02911735 0.0432238806 8 8"></polygon>
            <polygon id="Path" fill="#FFC1C1" stroke-linejoin="round" points="19.8275879 0.0432238806 13.0869671 7.3206292e-28 18 8"></polygon>
            <polygon id="Path" fill="#FF6E6E" points="8 8 13 24.6739244 18 8"></polygon>
            <polygon id="Path" fill="#DF5B5B" stroke-linejoin="round" points="3.55271368e-15 8 13 25 8 8"></polygon>
        </g>
        <g id="Level" transform="translate(18.000000, 36.000000)">
            <rect id="Rectangle" stroke="#1F222E" fill="#1F222E" x="0.5" y="1.5" width="31" height="12"></rect>
            <text id="LV.-2" fill="#FEFEFE" font-family="Krungthep" font-size="12" font-weight="bold">
                <tspan x="1" y="12">LV. 2</tspan>
            </text>
        </g>
    </g>
</svg>