<?xml version="1.0" encoding="UTF-8"?>
<svg width="52px" height="52px" viewBox="0 0 52 52" version="1.1" xmlns="http://www.w3.org/2000/svg" xmlns:xlink="http://www.w3.org/1999/xlink">
    <!-- Generator: Sketch 54.1 (76490) - https://sketchapp.com -->
    <title>diamond-3</title>
    <desc>Created with Sketch.</desc>
    <g id="diamond-3" stroke="none" stroke-width="1" fill="none" fill-rule="evenodd">
        <g id="diamond" transform="translate(1.000000, 1.000000)" fill-rule="nonzero" stroke="#1F222E" stroke-width="0.25">
            <polygon id="Path" fill="#FFE182" stroke-linejoin="round" points="35.1688477 15.3384793 25 49.9165899 50 15.3384793"></polygon>
            <g id="Group" fill="#FFCD73" stroke-linejoin="round">
                <polygon id="Path" points="10.3448242 0.0834101382 0 15.3384793 14.8311523 15.3384793"></polygon>
                <polygon id="Path" points="35.1688477 15.3384793 50 15.3384793 39.6551758 0.0834101382"></polygon>
                <polygon id="Path" points="35.1688477 15.3384793 25 0.0834101382 14.8311523 15.3384793"></polygon>
            </g>
            <polygon id="Path" fill="#FFAA64" points="25 0.0834101382 10.3448242 0.0834101382 14.8311523 15.3384793"></polygon>
            <polygon id="Path" fill="#FFE182" stroke-linejoin="round" points="39.6551758 0.0834101382 25 0.0834101382 35.1688477 15.3384793"></polygon>
            <polygon id="Path" fill="#FFAA64" stroke-linejoin="round" points="14.8311523 15.3384793 25 49.9165899 35.1688477 15.3384793"></polygon>
            <polygon id="Path" fill="#FF8C5A" stroke-linejoin="round" points="0 15.3384793 25 49.9165899 14.8311523 15.3384793"></polygon>
        </g>
        <g id="diamond" transform="translate(3.000000, 21.000000)" fill-rule="nonzero" stroke="#1F222E" stroke-width="0.25">
            <polygon id="Path" fill="#FFC1C1" stroke-linejoin="round" points="17.8810469 8 13 25 25 8"></polygon>
            <g id="Group" fill="#FD8989" stroke-linejoin="round">
                <polygon id="Path" points="4.90509581 0.0432238806 0 7.95677612 8 7.95677612"></polygon>
                <polygon id="Path" points="18 8 25 8 19.8275879 0.0432238806"></polygon>
                <polygon id="Path" points="18.1739341 8 13.0869671 0.0432238806 8 8"></polygon>
            </g>
            <polygon id="Path" fill="#FF6E6E" points="13.0869671 -2.22044605e-16 5.02911735 0.0432238806 8 8"></polygon>
            <polygon id="Path" fill="#FFC1C1" stroke-linejoin="round" points="19.8275879 0.0432238806 13.0869671 7.25752033e-28 18 8"></polygon>
            <polygon id="Path" fill="#FF6E6E" points="8 8 13 24.6739244 18 8"></polygon>
            <polygon id="Path" fill="#DF5B5B" stroke-linejoin="round" points="3.55271368e-15 8 13 25 8 8"></polygon>
        </g>
        <g id="diamond" transform="translate(2.000000, 34.000000)" fill-rule="nonzero" stroke="#1F222E" stroke-width="0.25">
            <polygon id="Path" fill="#DFFFD5" stroke-linejoin="round" points="10.8472773 5 8 15 15 5"></polygon>
            <g id="Group" fill="#B4FF9C" stroke-linejoin="round">
                <polygon id="Path" points="2.94305748 0.0270149254 0 4.97298507 4.8 4.97298507"></polygon>
                <polygon id="Path" points="10.8 5 15 5 11.8965527 0.0270149254"></polygon>
                <polygon id="Path" points="10.9043605 5 7.85218024 0.0270149254 4.8 5"></polygon>
            </g>
            <polygon id="Path" fill="#AAFFBB" stroke-linejoin="round" points="8 -1.38777878e-16 2.94305748 0.0270149254 4.84347112 5"></polygon>
            <polygon id="Path" fill="#DFFFD5" stroke-linejoin="round" points="11.8965527 0.0270149254 7.85218024 0.0270149254 10.915478 5"></polygon>
            <polygon id="Path" fill="#AAFFBB" points="5 5 8 14.7556151 11 5"></polygon>
            <polygon id="Path" fill="#97D576" stroke-linejoin="round" points="0 5 8 15 4.92307692 5"></polygon>
        </g>
        <g id="Level" transform="translate(18.000000, 36.000000)">
            <rect id="Rectangle" stroke="#1F222E" fill="#1F222E" x="0.5" y="1.5" width="31" height="12"></rect>
            <text id="LV.-3" fill="#FEFEFE" font-family="Krungthep" font-size="12" font-weight="bold">
                <tspan x="1" y="12">LV. 3</tspan>
            </text>
        </g>
    </g>
</svg>