<?xml version="1.0" encoding="UTF-8"?>
<svg width="50px" height="50px" viewBox="0 0 50 50" version="1.1" xmlns="http://www.w3.org/2000/svg" xmlns:xlink="http://www.w3.org/1999/xlink">
    <!-- Generator: Sketch 54.1 (76490) - https://sketchapp.com -->
    <title>Artboard</title>
    <desc>Created with Sketch.</desc>
    <g id="Artboard" stroke="none" stroke-width="1" fill="none" fill-rule="evenodd">
        <g id="diamond" fill-rule="nonzero">
            <polygon id="Path" fill="#FFE182" points="35.1688477 15.3384793 25 49.9165899 50 15.3384793"></polygon>
            <g id="Group" fill="#FFCD73">
                <polygon id="Path" points="10.3448242 0.0834101382 0 15.3384793 14.8311523 15.3384793"></polygon>
                <polygon id="Path" points="35.1688477 15.3384793 50 15.3384793 39.6551758 0.0834101382"></polygon>
                <polygon id="Path" points="35.1688477 15.3384793 25 0.0834101382 14.8311523 15.3384793"></polygon>
            </g>
            <polygon id="Path" fill="#FFAA64" points="25 0.0834101382 10.3448242 0.0834101382 14.8311523 15.3384793"></polygon>
            <polygon id="Path" fill="#FFE182" points="39.6551758 0.0834101382 25 0.0834101382 35.1688477 15.3384793"></polygon>
            <polygon id="Path" fill="#FFAA64" points="14.8311523 15.3384793 25 49.9165899 35.1688477 15.3384793"></polygon>
            <polygon id="Path" fill="#FF8C5A" points="0 15.3384793 25 49.9165899 14.8311523 15.3384793"></polygon>
        </g>
        <g id="diamond" transform="translate(2.000000, 20.000000)" fill-rule="nonzero">
            <polygon id="Path" fill="#FFE182" points="17.8810469 8 13 25 25 8"></polygon>
            <g id="Group" fill="#FFCD73">
                <polygon id="Path" points="5.17241211 0.0432238806 0 8 8 8"></polygon>
                <polygon id="Path" points="18 8 25 8 19.8275879 0.0432238806"></polygon>
                <polygon id="Path" points="18.1739341 8 13.0844238 -1.55431223e-14 8 8"></polygon>
            </g>
            <polygon id="Path" fill="#FFAA64" points="13.0844238 0.0432238806 5 0 8 8"></polygon>
            <polygon id="Path" fill="#FFE182" points="19.8275879 0.0432238806 13 0.0432238806 18 8"></polygon>
            <polygon id="Path" fill="#FFAA64" points="8 8 13 25 18 8"></polygon>
            <polygon id="Path" fill="#FF8C5A" points="0 8 13 25 8 8"></polygon>
        </g>
        <g id="Level" transform="translate(17.000000, 35.000000)">
            <rect id="Rectangle" stroke="#1F222E" fill="#1F222E" x="0.5" y="1.5" width="31" height="12"></rect>
            <text id="LV.-2" fill="#FEFEFE" font-family="Krungthep" font-size="12" font-weight="bold">
                <tspan x="1" y="12">LV. 2</tspan>
            </text>
        </g>
    </g>
</svg>