<?xml version="1.0" encoding="UTF-8"?>
<svg width="100px" height="131px" viewBox="0 0 100 131" version="1.1" xmlns="http://www.w3.org/2000/svg" xmlns:xlink="http://www.w3.org/1999/xlink">
    <!-- Generator: Sketch 54.1 (76490) - https://sketchapp.com -->
    <title>milk</title>
    <desc>Created with Sketch.</desc>
    <g id="Page-1" stroke="none" stroke-width="1" fill="none" fill-rule="evenodd">
        <g id="Artboard" fill-rule="nonzero">
            <g id="milk">
                <g id="crown-(1)" transform="translate(14.000000, 41.000000)" fill="#FFA000">
                    <ellipse id="Oval" cx="36" cy="11.0408163" rx="35.7142857" ry="10.2040816"></ellipse>
                </g>
                <g id="Group">
                    <path d="M67.4363145,34 L30.9980371,34 C28.2191387,34 25.9667305,36.2525977 25.9667305,39.0313066 L25.9667305,47.0453633 L49.7432871,53.357752 L72.4678105,47.0453633 L72.4678105,39.0313066 C72.4676211,36.2525977 70.2150234,34 67.4363145,34 Z" id="Path" fill="#F3F5E6"></path>
                    <path d="M56.6867441,68.0867852 L35.2247363,58.6182969 L10.1856641,68.0867852 L10.1856641,125.130553 C10.1856641,128.372096 12.8133789,131 16.0551113,131 L56.6867441,131 L72.4676211,99.5433926 L56.6867441,68.0867852 Z" id="Path" fill="#F3F5E6"></path>
                    <path d="M91.6801648,8.01199636 C87.07714,8.01199636 83.3455333,11.599236 83.3455333,16.0241805 C83.3472914,16.8641388 83.4879372,17.6984635 83.7621965,18.4959826 L77.0027981,22.6262938 C72.552335,25.3521678 66.6846701,24.4487385 63.3423788,20.5231119 L56.7163985,12.7313863 C57.7708514,11.3667593 58.3408576,9.71219359 58.3416389,8.01218414 C58.3416389,3.58723964 54.6100322,0 50.0070075,0 C45.4039828,0 41.672376,3.58723964 41.672376,8.01218414 C41.6731574,9.71219359 42.2431636,11.3667593 43.2976165,12.7313863 L36.6716362,20.5231119 C33.3299309,24.4464851 27.4650008,25.3497266 23.0155144,22.6262938 L16.2524045,18.4959826 C16.5268592,17.6984635 16.667505,16.8641388 16.6690677,16.0241805 C16.6698491,11.599236 12.9390237,8.011433 8.33580364,8.01068187 C3.73297427,8.00993073 0.000781504253,11.596607 1.38658533e-07,16.0215515 C-0.000781226936,20.1753358 3.30087909,23.6408913 7.60522681,24.0042536 L12.5309555,52.4071618 C12.6979724,53.3729355 13.566851,54.0812571 14.585361,54.0816327 C15.2824026,51.9457715 16.231699,50.5093098 17.43325,49.7722475 C19.8400696,48.2958424 24.979572,47.5047503 26.8775412,46.9291099 C33.9998689,44.7689593 44.346687,44.72783 48.9795918,44.72783 C53.6671302,44.72783 63.7780438,44.7177116 71.5,46.9291099 C73.5224588,47.5082976 76.7105882,48.2679073 79.5,49.7722475 C80.855581,50.5033174 82.8319944,51.9397791 85.42924,54.0816327 C86.4477501,54.0812571 87.3166286,53.3729355 87.4836455,52.4071618 L92.4093742,24.0042536 C96.9940368,23.608968 100.37735,19.7156403 99.9661562,15.3083475 C99.5813337,11.1829186 95.98881,8.0196955 91.6801648,8.01199636 Z" id="Path" fill="#FFC107"></path>
                </g>
                <path d="M97,16 C97,18.761532 94.7615318,21 92,21 C89.2384682,21 87,18.761532 87,16 C87,13.2384682 89.2384682,11 92,11 C94.7615318,11 97,13.2384682 97,16 Z" id="Path" fill="#FB91CF"></path>
                <path d="M55,8 C55,10.761532 52.7615318,13 50,13 C47.2384682,13 45,10.761532 45,8 C45,5.23846818 47.2384682,3 50,3 C52.7615318,3 55,5.23846818 55,8 Z" id="Path" fill="#FB91CF"></path>
                <path d="M13,16 C13,18.761532 10.7615318,21 8,21 C5.23846818,21 3,18.761532 3,16 C3,13.2384682 5.23846818,11 8,11 C10.7615318,11 13,13.2384682 13,16 Z" id="Path" fill="#FB91CF"></path>
                <path d="M48.9795918,64.2857143 C30.2153061,64.2857143 11.2244898,60.2568638 11.2244898,52.5510204 C11.2244898,44.845177 30.2153061,40.8163265 48.9795918,40.8163265 C67.7438776,40.8163265 86.7346939,44.845177 86.7346939,52.5510204 C86.7346939,60.2568638 67.7438776,64.2857143 48.9795918,64.2857143 Z M48.9795918,44.72783 C26.9473267,44.72783 15.4194356,49.8128029 15.4194356,52.5510204 C15.4194356,55.2892379 26.9473267,60.3742108 48.9795918,60.3742108 C71.0118569,60.3742108 82.5397481,55.2892379 82.5397481,52.5510204 C82.5397481,49.8128029 71.0118569,44.72783 48.9795918,44.72783 Z" id="Shape" fill="#FFD54F"></path>
                <path d="M72.4676211,60.7223633 L56.6867441,68.0867852 L56.6867441,131 L82.3792402,131 C85.6207832,131 88.2486875,128.372285 88.2486875,125.130553 L88.2486875,68.0867852 L72.4676211,60.7223633 Z" id="Path" fill="#D7D9CC"></path>
                <rect id="Rectangle" fill="#80E2FF" x="10.1849063" y="85.1309355" width="46.501459" height="28.8268086"></rect>
                <g id="Group" transform="translate(19.283203, 95.003906)" fill="#3B484A">
                    <path d="M1.61376172,5.33613672 C0.805175781,5.33613672 0.150046875,4.68081836 0.150046875,3.87242188 L0.150046875,1.60277344 C0.150046875,0.794376953 0.805175781,0.139058594 1.61376172,0.139058594 C2.42234766,0.139058594 3.07747656,0.794376953 3.07747656,1.60277344 L3.07747656,3.87223242 C3.07747656,4.68062891 2.42234766,5.33613672 1.61376172,5.33613672 Z" id="Path"></path>
                    <path d="M26.6926191,5.33613672 C25.8840332,5.33613672 25.2289043,4.68081836 25.2289043,3.87242188 L25.2289043,1.60277344 C25.2289043,0.794376953 25.8840332,0.139058594 26.6926191,0.139058594 C27.5012051,0.139058594 28.156334,0.794376953 28.156334,1.60277344 L28.156334,3.87223242 C28.156334,4.68062891 27.5012051,5.33613672 26.6926191,5.33613672 Z" id="Path"></path>
                    <path d="M14.1530957,6.5475 C12.5243672,6.5475 10.9947227,5.86603711 9.95614063,4.67778711 C9.4239668,4.06907422 9.48610742,3.14435352 10.0948203,2.61236914 C10.7033438,2.08038477 11.6282539,2.14252539 12.1600488,2.75104883 C12.6429648,3.30311523 13.3689492,3.61988086 14.1529063,3.61988086 C14.9368633,3.61988086 15.6630371,3.30311523 16.1457637,2.75104883 C16.677748,2.14233594 17.6026582,2.08019531 18.2109922,2.61236914 C18.8197051,3.14435352 18.8820352,4.06907422 18.3496719,4.67778711 C17.3114688,5.86603711 15.7818242,6.5475 14.1530957,6.5475 Z" id="Path"></path>
                </g>
                <polygon id="Path" fill="#55C2E3" points="72.4676211 47.0455527 56.6867441 68.0867852 88.2486875 68.0867852"></polygon>
                <polygon id="Path" fill="#80E2FF" points="10.1856641 68.0867852 25.9667305 47.0455527 72.4676211 47.0455527 56.6867441 68.0867852"></polygon>
                <path d="M61,83 L61,71 L65.6703125,71 C66.3083365,71 66.8561175,71.2624974 67.3136719,71.7875 C67.7712262,72.3125026 68,72.9374964 68,73.6625 L68,80.3375 C68,81.0583369 67.7712262,81.682289 67.3136719,82.209375 C66.8561175,82.736461 66.3083365,83 65.6703125,83 L61,83 Z M63,82 L64,82 C64.27726,82 64.5132389,81.8592507 64.7079439,81.577748 C64.9026489,81.2962452 65,80.9633621 65,80.5790885 L65,73.4209115 C65,73.0321696 64.9010913,72.6981694 64.703271,72.4189008 C64.5054507,72.1396322 64.2710294,72 64,72 L63,72 L63,82 Z M71,83 L71,71 L76,71 L76,72.3375 L72.9981238,72.3375 L72.9981238,76.3375 L75.0056285,76.3375 L75.0056285,77.6625 L72.9981238,77.6625 L72.9981238,81.6625 L76,81.6625 L76,83 L71,83 Z M82.6703125,71 L85,71 L85,78.44375 C85,79.6854229 84.6089883,80.7552038 83.8269531,81.653125 C83.044918,82.5510462 82.1070367,83 81.0132812,83 L78,83 L78,71 L80.3296875,71 L80.3296875,81.6625 L81.5,81.6625 C81.8244808,81.6625 82.1006499,81.5312513 82.3285156,81.26875 C82.5563813,81.0062487 82.6703125,80.6958351 82.6703125,80.3375 L82.6703125,71 Z" id="DEV" fill="#3B484A"></path>
                <rect id="Rectangle" fill="#55C2E3" x="56.6863652" y="85.1309355" width="31.5611855" height="28.8268086"></rect>
            </g>
        </g>
    </g>
</svg>