<?xml version="1.0" encoding="UTF-8"?>
<svg width="78px" height="97px" viewBox="0 0 78 97" version="1.1" xmlns="http://www.w3.org/2000/svg" xmlns:xlink="http://www.w3.org/1999/xlink">
    <!-- Generator: Sketch 54.1 (76490) - https://sketchapp.com -->
    <title>milk</title>
    <desc>Created with Sketch.</desc>
    <g id="Page-1" stroke="none" stroke-width="1" fill="none" fill-rule="evenodd">
        <g id="Artboard" fill-rule="nonzero">
            <g id="milk">
                <g id="Group" fill="#F3F5E6">
                    <path d="M57.4363145,0 L20.9980371,0 C18.2191387,0 15.9667305,2.25259766 15.9667305,5.03130664 L15.9667305,13.0453633 L39.7432871,19.357752 L62.4678105,13.0453633 L62.4678105,5.03130664 C62.4676211,2.25259766 60.2150234,0 57.4363145,0 Z" id="Path"></path>
                    <path d="M46.6867441,34.0867852 L25.2247363,24.6182969 L0.185664062,34.0867852 L0.185664062,91.1305527 C0.185664062,94.3720957 2.81337891,97 6.05511133,97 L46.6867441,97 L62.4676211,65.5433926 L46.6867441,34.0867852 Z" id="Path"></path>
                </g>
                <path d="M62.4676211,26.7223633 L46.6867441,34.0867852 L46.6867441,97 L72.3792402,97 C75.6207832,97 78.2486875,94.3722852 78.2486875,91.1305527 L78.2486875,34.0867852 L62.4676211,26.7223633 Z" id="Path" fill="#D7D9CC"></path>
                <rect id="Rectangle" fill="#80E2FF" x="0.18490625" y="51.1309355" width="46.501459" height="28.8268086"></rect>
                <g id="Group" transform="translate(9.283203, 61.003906)" fill="#3B484A">
                    <path d="M1.61376172,5.33613672 C0.805175781,5.33613672 0.150046875,4.68081836 0.150046875,3.87242188 L0.150046875,1.60277344 C0.150046875,0.794376953 0.805175781,0.139058594 1.61376172,0.139058594 C2.42234766,0.139058594 3.07747656,0.794376953 3.07747656,1.60277344 L3.07747656,3.87223242 C3.07747656,4.68062891 2.42234766,5.33613672 1.61376172,5.33613672 Z" id="Path"></path>
                    <path d="M26.6926191,5.33613672 C25.8840332,5.33613672 25.2289043,4.68081836 25.2289043,3.87242188 L25.2289043,1.60277344 C25.2289043,0.794376953 25.8840332,0.139058594 26.6926191,0.139058594 C27.5012051,0.139058594 28.156334,0.794376953 28.156334,1.60277344 L28.156334,3.87223242 C28.156334,4.68062891 27.5012051,5.33613672 26.6926191,5.33613672 Z" id="Path"></path>
                    <path d="M14.1530957,6.5475 C12.5243672,6.5475 10.9947227,5.86603711 9.95614063,4.67778711 C9.4239668,4.06907422 9.48610742,3.14435352 10.0948203,2.61236914 C10.7033438,2.08038477 11.6282539,2.14252539 12.1600488,2.75104883 C12.6429648,3.30311523 13.3689492,3.61988086 14.1529063,3.61988086 C14.9368633,3.61988086 15.6630371,3.30311523 16.1457637,2.75104883 C16.677748,2.14233594 17.6026582,2.08019531 18.2109922,2.61236914 C18.8197051,3.14435352 18.8820352,4.06907422 18.3496719,4.67778711 C17.3114688,5.86603711 15.7818242,6.5475 14.1530957,6.5475 Z" id="Path"></path>
                </g>
                <polygon id="Path" fill="#55C2E3" points="62.4676211 13.0455527 46.6867441 34.0867852 78.2486875 34.0867852"></polygon>
                <polygon id="Path" fill="#80E2FF" points="0.185664062 34.0867852 15.9667305 13.0455527 62.4676211 13.0455527 46.6867441 34.0867852"></polygon>
                <path d="M51,49 L51,37 L55.6703125,37 C56.3083365,37 56.8561175,37.2624974 57.3136719,37.7875 C57.7712262,38.3125026 58,38.9374964 58,39.6625 L58,46.3375 C58,47.0583369 57.7712262,47.682289 57.3136719,48.209375 C56.8561175,48.736461 56.3083365,49 55.6703125,49 L51,49 Z M53,48 L54,48 C54.27726,48 54.5132389,47.8592507 54.7079439,47.577748 C54.9026489,47.2962452 55,46.9633621 55,46.5790885 L55,39.4209115 C55,39.0321696 54.9010913,38.6981694 54.703271,38.4189008 C54.5054507,38.1396322 54.2710294,38 54,38 L53,38 L53,48 Z M61,49 L61,37 L66,37 L66,38.3375 L62.9981238,38.3375 L62.9981238,42.3375 L65.0056285,42.3375 L65.0056285,43.6625 L62.9981238,43.6625 L62.9981238,47.6625 L66,47.6625 L66,49 L61,49 Z M72.6703125,37 L75,37 L75,44.44375 C75,45.6854229 74.6089883,46.7552038 73.8269531,47.653125 C73.044918,48.5510462 72.1070367,49 71.0132812,49 L68,49 L68,37 L70.3296875,37 L70.3296875,47.6625 L71.5,47.6625 C71.8244808,47.6625 72.1006499,47.5312513 72.3285156,47.26875 C72.5563813,47.0062487 72.6703125,46.6958351 72.6703125,46.3375 L72.6703125,37 Z" id="DEV" fill="#3B484A"></path>
                <rect id="Rectangle" fill="#55C2E3" x="46.6863652" y="51.1309355" width="31.5611855" height="28.8268086"></rect>
            </g>
        </g>
    </g>
</svg>